<?xml version="1.0" encoding="utf-8" standalone="no"?>
<!DOCTYPE svg PUBLIC "-//W3C//DTD SVG 1.1//EN"
  "http://www.w3.org/Graphics/SVG/1.1/DTD/svg11.dtd">
<svg xmlns:xlink="http://www.w3.org/1999/xlink" width="460.8pt" height="345.6pt" viewBox="0 0 460.8 345.6" xmlns="http://www.w3.org/2000/svg" version="1.1">
 <metadata>
  <rdf:RDF xmlns:dc="http://purl.org/dc/elements/1.1/" xmlns:cc="http://creativecommons.org/ns#" xmlns:rdf="http://www.w3.org/1999/02/22-rdf-syntax-ns#">
   <cc:Work>
    <dc:type rdf:resource="http://purl.org/dc/dcmitype/StillImage"/>
    <dc:date>2024-04-03T09:18:26.377444</dc:date>
    <dc:format>image/svg+xml</dc:format>
    <dc:creator>
     <cc:Agent>
      <dc:title>Matplotlib v3.8.3, https://matplotlib.org/</dc:title>
     </cc:Agent>
    </dc:creator>
   </cc:Work>
  </rdf:RDF>
 </metadata>
 <defs>
  <style type="text/css">*{stroke-linejoin: round; stroke-linecap: butt}</style>
 </defs>
 <g id="figure_1">
  <g id="patch_1">
   <path d="M 0 345.6 
L 460.8 345.6 
L 460.8 0 
L 0 0 
z
" style="fill: #ffffff"/>
  </g>
  <g id="axes_1">
   <g id="patch_2">
    <path d="M 342.6048 174.528 
C 342.6048 174.487759 342.604777 174.447517 342.604732 174.407276 
C 342.604686 174.367034 342.604617 174.326793 342.604526 174.286552 
L 236.16 174.528 
z
" style="fill: #ffffff"/>
   </g>
   <g id="patch_3">
    <path d="M 342.604526 174.286552 
C 342.542927 147.129895 332.091092 121.000355 313.406946 101.29273 
C 294.7228 81.585105 269.187244 69.755941 242.072443 68.247529 
L 236.16 174.528 
z
" style="fill: #e8c2db"/>
   </g>
   <g id="patch_4">
    <path d="M 242.072443 68.247529 
C 226.09488 67.358688 210.120651 70.084138 195.341699 76.220514 
C 180.562747 82.356891 167.356034 91.747675 156.707002 103.692157 
L 236.16 174.528 
z
" style="fill: #7f694c"/>
   </g>
   <g id="patch_5">
    <path d="M 156.707002 103.692157 
C 148.707779 112.664484 142.285854 122.927317 137.714198 134.04443 
C 133.142541 145.161542 130.486857 156.973155 129.860027 168.977209 
L 236.16 174.528 
z
" style="fill: #86605f"/>
   </g>
   <g id="patch_6">
    <path d="M 129.860027 168.977209 
C 129.361942 178.515763 130.14999 188.078107 132.202927 197.406427 
C 134.255864 206.734747 137.555071 215.744446 142.011596 224.19261 
L 236.16 174.528 
z
" style="fill: #cfd7b0"/>
   </g>
   <g id="patch_7">
    <path d="M 142.011596 224.19261 
C 145.977987 231.711634 150.830878 238.728502 156.466457 245.093109 
C 162.102035 251.457716 168.479826 257.124353 175.463396 261.971797 
L 236.16 174.528 
z
" style="fill: #5b5e66"/>
   </g>
   <g id="patch_8">
    <path d="M 175.463396 261.971797 
C 181.617897 266.243768 188.206244 269.854074 195.118823 272.742649 
C 202.031402 275.631224 209.229664 277.781959 216.593846 279.159071 
L 236.16 174.528 
z
" style="fill: #a38fa3"/>
   </g>
   <g id="patch_9">
    <path d="M 216.593846 279.159071 
C 222.094939 280.187783 227.668604 280.781056 233.262983 280.93337 
C 238.857362 281.085684 244.455051 280.796565 250.003969 280.068703 
L 236.16 174.528 
z
" style="fill: #554e4e"/>
   </g>
   <g id="patch_10">
    <path d="M 250.003969 280.068703 
C 253.595715 279.597567 257.16107 278.943387 260.686114 278.108718 
C 264.211158 277.274049 267.691297 276.259978 271.112943 275.070465 
L 236.16 174.528 
z
" style="fill: #b0886a"/>
   </g>
   <g id="patch_11">
    <path d="M 271.112943 275.070465 
C 274.53459 273.880951 277.893285 272.517545 281.175915 270.98557 
C 284.458545 269.453595 287.660832 267.755047 290.770273 265.896559 
L 236.16 174.528 
z
" style="fill: #f18772"/>
   </g>
   <g id="patch_12">
    <path d="M 290.770273 265.896559 
C 293.879715 264.03807 296.892259 262.022062 299.796142 259.856406 
C 302.700026 257.69075 305.491466 255.378268 308.159563 252.927989 
L 236.16 174.528 
z
" style="fill: #a54b45"/>
   </g>
   <g id="patch_13">
    <path d="M 308.159563 252.927989 
C 310.531097 250.750063 312.802589 248.465653 314.967032 246.081806 
C 317.131474 243.69796 319.186638 241.217132 321.126183 238.646976 
L 236.16 174.528 
z
" style="fill: #7f8d7b"/>
   </g>
   <g id="patch_14">
    <path d="M 321.126183 238.646976 
C 322.72622 236.526714 324.246333 234.347303 325.683328 232.113321 
C 327.120323 229.879339 328.473194 227.592351 329.739099 225.25716 
L 236.16 174.528 
z
" style="fill: #bbbcb9"/>
   </g>
   <g id="patch_15">
    <path d="M 329.739099 225.25716 
C 330.69807 223.488165 331.606688 221.692332 332.463856 219.871828 
C 333.321024 218.051324 334.126399 216.20688 334.879009 214.340721 
L 236.16 174.528 
z
" style="fill: #52557b"/>
   </g>
   <g id="patch_16">
    <path d="M 334.879009 214.340721 
C 335.330555 213.221073 335.763021 212.093825 336.176218 210.959464 
C 336.589415 209.825104 336.983284 208.683796 337.357653 207.536037 
L 236.16 174.528 
z
" style="fill: #d1bfac"/>
   </g>
   <g id="patch_17">
    <path d="M 337.357653 207.536037 
C 337.694584 206.503057 338.015679 205.46498 338.320825 204.422169 
C 338.625971 203.379358 338.915132 202.331937 339.188207 201.280272 
L 236.16 174.528 
z
" style="fill: #cadabd"/>
   </g>
   <g id="patch_18">
    <path d="M 339.188207 201.280272 
C 339.390483 200.501268 339.583917 199.719995 339.768472 198.936604 
C 339.953027 198.153212 340.128692 197.367753 340.295432 196.580377 
L 236.16 174.528 
z
" style="fill: #af7680"/>
   </g>
   <g id="patch_19">
    <path d="M 340.295432 196.580377 
C 340.453834 195.832371 340.604173 195.08268 340.746421 194.331435 
C 340.888669 193.580189 341.022819 192.827432 341.148847 192.073296 
L 236.16 174.528 
z
" style="fill: #7d90a5"/>
   </g>
   <g id="patch_20">
    <path d="M 341.148847 192.073296 
C 341.261609 191.398544 341.367863 190.72272 341.467595 190.04592 
C 341.567327 189.369119 341.660532 188.691372 341.747198 188.012775 
L 236.16 174.528 
z
" style="fill: #f1dadb"/>
   </g>
   <g id="patch_21">
    <path d="M 341.747198 188.012775 
C 341.823667 187.414013 341.895041 186.814612 341.961314 186.214636 
C 342.027586 185.61466 342.088754 185.014131 342.14481 184.413115 
L 236.16 174.528 
z
" style="fill: #ddd7d3"/>
   </g>
   <g id="patch_22">
    <path d="M 342.14481 184.413115 
C 342.189655 183.932303 342.231227 183.451191 342.269525 182.969813 
C 342.307822 182.488435 342.342843 182.006802 342.374585 181.524948 
L 236.16 174.528 
z
" style="fill: #e1dba2"/>
   </g>
   <g id="patch_23">
    <path d="M 342.374585 181.524948 
C 342.395747 181.203712 342.415451 180.882382 342.433697 180.560968 
C 342.451943 180.239553 342.468731 179.918058 342.484061 179.596491 
L 236.16 174.528 
z
" style="fill: #cdb97d"/>
   </g>
   <g id="patch_24">
    <path d="M 342.484061 179.596491 
C 342.49939 179.274924 342.51326 178.953289 342.525671 178.631597 
C 342.538082 178.309904 342.549033 177.988157 342.558525 177.666365 
L 236.16 174.528 
z
" style="fill: #fcefdf"/>
   </g>
   <g id="patch_25">
    <path d="M 342.558525 177.666365 
C 342.563271 177.505469 342.567652 177.344563 342.571668 177.183647 
C 342.575683 177.022732 342.579334 176.861807 342.58262 176.700875 
L 236.16 174.528 
z
" style="fill: #8a7b93"/>
   </g>
   <g id="patch_26">
    <path d="M 342.58262 176.700875 
C 342.585906 176.539943 342.588827 176.379003 342.591382 176.218058 
C 342.593938 176.057112 342.596129 175.896161 342.597954 175.735206 
L 236.16 174.528 
z
" style="fill: #efede9"/>
   </g>
   <g id="patch_27">
    <path d="M 342.597954 175.735206 
C 342.599323 175.614489 342.600487 175.49377 342.601446 175.37305 
C 342.602404 175.25233 342.603157 175.131608 342.603705 175.010884 
L 236.16 174.528 
z
" style="fill: #d8d1e1"/>
   </g>
   <g id="patch_28">
    <path d="M 342.603705 175.010884 
C 342.603887 174.970643 342.604047 174.930402 342.604184 174.890161 
C 342.604321 174.84992 342.604435 174.809679 342.604526 174.769437 
L 236.16 174.528 
z
" style="fill: #7a7579"/>
   </g>
   <g id="patch_29">
    <path d="M 342.604526 174.769437 
C 342.604617 174.729196 342.604686 174.688955 342.604732 174.648713 
C 342.604777 174.608472 342.6048 174.56823 342.6048 174.527989 
L 236.16 174.528 
z
" style="fill: #dcd2bd"/>
   </g>
   <g id="matplotlib.axis_1"/>
   <g id="matplotlib.axis_2"/>
   <g id="text_1">
    <!-- 1:1 -->
    <g transform="translate(353.249205 176.797547) scale(0.1 -0.1)">
     <defs>
      <path id="TimesNewRomanPSMT-31" d="M 750 3822 
L 1781 4325 
L 1884 4325 
L 1884 747 
Q 1884 391 1914 303 
Q 1944 216 2037 169 
Q 2131 122 2419 116 
L 2419 0 
L 825 0 
L 825 116 
Q 1125 122 1212 167 
Q 1300 213 1334 289 
Q 1369 366 1369 747 
L 1369 3034 
Q 1369 3497 1338 3628 
Q 1316 3728 1258 3775 
Q 1200 3822 1119 3822 
Q 1003 3822 797 3725 
L 750 3822 
z
" transform="scale(0.015625)"/>
      <path id="TimesNewRomanPSMT-3a" d="M 903 2950 
Q 1047 2950 1148 2848 
Q 1250 2747 1250 2603 
Q 1250 2459 1148 2357 
Q 1047 2256 903 2256 
Q 759 2256 657 2357 
Q 556 2459 556 2603 
Q 556 2747 657 2848 
Q 759 2950 903 2950 
z
M 897 609 
Q 1044 609 1145 506 
Q 1247 403 1247 259 
Q 1247 116 1144 14 
Q 1041 -88 897 -88 
Q 753 -88 651 14 
Q 550 116 550 259 
Q 550 403 651 506 
Q 753 609 897 609 
z
" transform="scale(0.015625)"/>
     </defs>
     <use xlink:href="#TimesNewRomanPSMT-31"/>
     <use xlink:href="#TimesNewRomanPSMT-3a" x="50"/>
     <use xlink:href="#TimesNewRomanPSMT-31" x="77.783203"/>
    </g>
   </g>
   <g id="text_2">
    <!-- 0.0% -->
    <g transform="translate(289.611995 176.857909) scale(0.1 -0.1)">
     <defs>
      <path id="TimesNewRomanPSMT-30" d="M 231 2094 
Q 231 2819 450 3342 
Q 669 3866 1031 4122 
Q 1313 4325 1613 4325 
Q 2100 4325 2488 3828 
Q 2972 3213 2972 2159 
Q 2972 1422 2759 906 
Q 2547 391 2217 158 
Q 1888 -75 1581 -75 
Q 975 -75 572 641 
Q 231 1244 231 2094 
z
M 844 2016 
Q 844 1141 1059 588 
Q 1238 122 1591 122 
Q 1759 122 1940 273 
Q 2122 425 2216 781 
Q 2359 1319 2359 2297 
Q 2359 3022 2209 3506 
Q 2097 3866 1919 4016 
Q 1791 4119 1609 4119 
Q 1397 4119 1231 3928 
Q 1006 3669 925 3112 
Q 844 2556 844 2016 
z
" transform="scale(0.015625)"/>
      <path id="TimesNewRomanPSMT-2e" d="M 800 606 
Q 947 606 1047 504 
Q 1147 403 1147 259 
Q 1147 116 1045 14 
Q 944 -88 800 -88 
Q 656 -88 554 14 
Q 453 116 453 259 
Q 453 406 554 506 
Q 656 606 800 606 
z
" transform="scale(0.015625)"/>
      <path id="TimesNewRomanPSMT-25" d="M 4350 4334 
L 1263 -175 
L 984 -175 
L 4072 4334 
L 4350 4334 
z
M 1138 4334 
Q 1559 4334 1792 3984 
Q 2025 3634 2025 3181 
Q 2025 2638 1762 2341 
Q 1500 2044 1131 2044 
Q 884 2044 678 2180 
Q 472 2316 348 2584 
Q 225 2853 225 3181 
Q 225 3509 350 3786 
Q 475 4063 692 4198 
Q 909 4334 1138 4334 
z
M 1128 4159 
Q 969 4159 845 3971 
Q 722 3784 722 3184 
Q 722 2750 791 2522 
Q 844 2350 956 2256 
Q 1022 2200 1119 2200 
Q 1269 2200 1375 2363 
Q 1531 2603 1531 3166 
Q 1531 3759 1378 4000 
Q 1278 4159 1128 4159 
z
M 4206 2103 
Q 4428 2103 4648 1962 
Q 4869 1822 4989 1553 
Q 5109 1284 5109 963 
Q 5109 409 4843 117 
Q 4578 -175 4216 -175 
Q 3988 -175 3773 -34 
Q 3559 106 3436 367 
Q 3313 628 3313 963 
Q 3313 1291 3436 1562 
Q 3559 1834 3773 1968 
Q 3988 2103 4206 2103 
z
M 4209 1938 
Q 4059 1938 3950 1769 
Q 3809 1550 3809 941 
Q 3809 381 3953 159 
Q 4059 0 4209 0 
Q 4353 0 4466 172 
Q 4616 400 4616 956 
Q 4616 1544 4466 1778 
Q 4363 1938 4209 1938 
z
" transform="scale(0.015625)"/>
     </defs>
     <use xlink:href="#TimesNewRomanPSMT-30"/>
     <use xlink:href="#TimesNewRomanPSMT-2e" x="50"/>
     <use xlink:href="#TimesNewRomanPSMT-30" x="75"/>
     <use xlink:href="#TimesNewRomanPSMT-25" x="125"/>
    </g>
   </g>
   <g id="text_3">
    <!-- insertvalue:667 -->
    <g transform="translate(321.131641 91.135765) scale(0.1 -0.1)">
     <defs>
      <path id="TimesNewRomanPSMT-69" d="M 928 4444 
Q 1059 4444 1151 4351 
Q 1244 4259 1244 4128 
Q 1244 3997 1151 3903 
Q 1059 3809 928 3809 
Q 797 3809 703 3903 
Q 609 3997 609 4128 
Q 609 4259 701 4351 
Q 794 4444 928 4444 
z
M 1188 2947 
L 1188 647 
Q 1188 378 1227 289 
Q 1266 200 1342 156 
Q 1419 113 1622 113 
L 1622 0 
L 231 0 
L 231 113 
Q 441 113 512 153 
Q 584 194 626 287 
Q 669 381 669 647 
L 669 1750 
Q 669 2216 641 2353 
Q 619 2453 572 2492 
Q 525 2531 444 2531 
Q 356 2531 231 2484 
L 188 2597 
L 1050 2947 
L 1188 2947 
z
" transform="scale(0.015625)"/>
      <path id="TimesNewRomanPSMT-6e" d="M 1034 2341 
Q 1538 2947 1994 2947 
Q 2228 2947 2397 2830 
Q 2566 2713 2666 2444 
Q 2734 2256 2734 1869 
L 2734 647 
Q 2734 375 2778 278 
Q 2813 200 2889 156 
Q 2966 113 3172 113 
L 3172 0 
L 1756 0 
L 1756 113 
L 1816 113 
Q 2016 113 2095 173 
Q 2175 234 2206 353 
Q 2219 400 2219 647 
L 2219 1819 
Q 2219 2209 2117 2386 
Q 2016 2563 1775 2563 
Q 1403 2563 1034 2156 
L 1034 647 
Q 1034 356 1069 288 
Q 1113 197 1189 155 
Q 1266 113 1500 113 
L 1500 0 
L 84 0 
L 84 113 
L 147 113 
Q 366 113 442 223 
Q 519 334 519 647 
L 519 1709 
Q 519 2225 495 2337 
Q 472 2450 423 2490 
Q 375 2531 294 2531 
Q 206 2531 84 2484 
L 38 2597 
L 900 2947 
L 1034 2947 
L 1034 2341 
z
" transform="scale(0.015625)"/>
      <path id="TimesNewRomanPSMT-73" d="M 2050 2947 
L 2050 1972 
L 1947 1972 
Q 1828 2431 1642 2597 
Q 1456 2763 1169 2763 
Q 950 2763 815 2647 
Q 681 2531 681 2391 
Q 681 2216 781 2091 
Q 878 1963 1175 1819 
L 1631 1597 
Q 2266 1288 2266 781 
Q 2266 391 1970 151 
Q 1675 -88 1309 -88 
Q 1047 -88 709 6 
Q 606 38 541 38 
Q 469 38 428 -44 
L 325 -44 
L 325 978 
L 428 978 
Q 516 541 762 319 
Q 1009 97 1316 97 
Q 1531 97 1667 223 
Q 1803 350 1803 528 
Q 1803 744 1651 891 
Q 1500 1038 1047 1263 
Q 594 1488 453 1669 
Q 313 1847 313 2119 
Q 313 2472 555 2709 
Q 797 2947 1181 2947 
Q 1350 2947 1591 2875 
Q 1750 2828 1803 2828 
Q 1853 2828 1881 2850 
Q 1909 2872 1947 2947 
L 2050 2947 
z
" transform="scale(0.015625)"/>
      <path id="TimesNewRomanPSMT-65" d="M 681 1784 
Q 678 1147 991 784 
Q 1303 422 1725 422 
Q 2006 422 2214 576 
Q 2422 731 2563 1106 
L 2659 1044 
Q 2594 616 2278 264 
Q 1963 -88 1488 -88 
Q 972 -88 605 314 
Q 238 716 238 1394 
Q 238 2128 614 2539 
Q 991 2950 1559 2950 
Q 2041 2950 2350 2633 
Q 2659 2316 2659 1784 
L 681 1784 
z
M 681 1966 
L 2006 1966 
Q 1991 2241 1941 2353 
Q 1863 2528 1708 2628 
Q 1553 2728 1384 2728 
Q 1125 2728 920 2526 
Q 716 2325 681 1966 
z
" transform="scale(0.015625)"/>
      <path id="TimesNewRomanPSMT-72" d="M 1038 2947 
L 1038 2303 
Q 1397 2947 1775 2947 
Q 1947 2947 2059 2842 
Q 2172 2738 2172 2600 
Q 2172 2478 2090 2393 
Q 2009 2309 1897 2309 
Q 1788 2309 1652 2417 
Q 1516 2525 1450 2525 
Q 1394 2525 1328 2463 
Q 1188 2334 1038 2041 
L 1038 669 
Q 1038 431 1097 309 
Q 1138 225 1241 169 
Q 1344 113 1538 113 
L 1538 0 
L 72 0 
L 72 113 
Q 291 113 397 181 
Q 475 231 506 341 
Q 522 394 522 644 
L 522 1753 
Q 522 2253 501 2348 
Q 481 2444 426 2487 
Q 372 2531 291 2531 
Q 194 2531 72 2484 
L 41 2597 
L 906 2947 
L 1038 2947 
z
" transform="scale(0.015625)"/>
      <path id="TimesNewRomanPSMT-74" d="M 1031 3803 
L 1031 2863 
L 1700 2863 
L 1700 2644 
L 1031 2644 
L 1031 788 
Q 1031 509 1111 412 
Q 1191 316 1316 316 
Q 1419 316 1516 380 
Q 1613 444 1666 569 
L 1788 569 
Q 1678 263 1478 108 
Q 1278 -47 1066 -47 
Q 922 -47 784 33 
Q 647 113 581 261 
Q 516 409 516 719 
L 516 2644 
L 63 2644 
L 63 2747 
Q 234 2816 414 2980 
Q 594 3144 734 3369 
Q 806 3488 934 3803 
L 1031 3803 
z
" transform="scale(0.015625)"/>
      <path id="TimesNewRomanPSMT-76" d="M 53 2863 
L 1400 2863 
L 1400 2747 
L 1313 2747 
Q 1191 2747 1127 2687 
Q 1063 2628 1063 2528 
Q 1063 2419 1128 2269 
L 1794 688 
L 2463 2328 
Q 2534 2503 2534 2594 
Q 2534 2638 2509 2666 
Q 2475 2713 2422 2730 
Q 2369 2747 2206 2747 
L 2206 2863 
L 3141 2863 
L 3141 2747 
Q 2978 2734 2916 2681 
Q 2806 2588 2719 2369 
L 1703 -88 
L 1575 -88 
L 553 2328 
Q 484 2497 421 2570 
Q 359 2644 263 2694 
Q 209 2722 53 2747 
L 53 2863 
z
" transform="scale(0.015625)"/>
      <path id="TimesNewRomanPSMT-61" d="M 1822 413 
Q 1381 72 1269 19 
Q 1100 -59 909 -59 
Q 613 -59 420 144 
Q 228 347 228 678 
Q 228 888 322 1041 
Q 450 1253 767 1440 
Q 1084 1628 1822 1897 
L 1822 2009 
Q 1822 2438 1686 2597 
Q 1550 2756 1291 2756 
Q 1094 2756 978 2650 
Q 859 2544 859 2406 
L 866 2225 
Q 866 2081 792 2003 
Q 719 1925 600 1925 
Q 484 1925 411 2006 
Q 338 2088 338 2228 
Q 338 2497 613 2722 
Q 888 2947 1384 2947 
Q 1766 2947 2009 2819 
Q 2194 2722 2281 2516 
Q 2338 2381 2338 1966 
L 2338 994 
Q 2338 584 2353 492 
Q 2369 400 2405 369 
Q 2441 338 2488 338 
Q 2538 338 2575 359 
Q 2641 400 2828 588 
L 2828 413 
Q 2478 -56 2159 -56 
Q 2006 -56 1915 50 
Q 1825 156 1822 413 
z
M 1822 616 
L 1822 1706 
Q 1350 1519 1213 1441 
Q 966 1303 859 1153 
Q 753 1003 753 825 
Q 753 600 887 451 
Q 1022 303 1197 303 
Q 1434 303 1822 616 
z
" transform="scale(0.015625)"/>
      <path id="TimesNewRomanPSMT-6c" d="M 1184 4444 
L 1184 647 
Q 1184 378 1223 290 
Q 1263 203 1344 158 
Q 1425 113 1647 113 
L 1647 0 
L 244 0 
L 244 113 
Q 441 113 512 153 
Q 584 194 625 287 
Q 666 381 666 647 
L 666 3247 
Q 666 3731 644 3842 
Q 622 3953 573 3993 
Q 525 4034 450 4034 
Q 369 4034 244 3984 
L 191 4094 
L 1044 4444 
L 1184 4444 
z
" transform="scale(0.015625)"/>
      <path id="TimesNewRomanPSMT-75" d="M 2709 2863 
L 2709 1128 
Q 2709 631 2732 520 
Q 2756 409 2807 365 
Q 2859 322 2928 322 
Q 3025 322 3147 375 
L 3191 266 
L 2334 -88 
L 2194 -88 
L 2194 519 
Q 1825 119 1631 15 
Q 1438 -88 1222 -88 
Q 981 -88 804 51 
Q 628 191 559 409 
Q 491 628 491 1028 
L 491 2306 
Q 491 2509 447 2587 
Q 403 2666 317 2708 
Q 231 2750 6 2747 
L 6 2863 
L 1009 2863 
L 1009 947 
Q 1009 547 1148 422 
Q 1288 297 1484 297 
Q 1619 297 1789 381 
Q 1959 466 2194 703 
L 2194 2325 
Q 2194 2569 2105 2655 
Q 2016 2741 1734 2747 
L 1734 2863 
L 2709 2863 
z
" transform="scale(0.015625)"/>
      <path id="TimesNewRomanPSMT-36" d="M 2869 4325 
L 2869 4209 
Q 2456 4169 2195 4045 
Q 1934 3922 1679 3669 
Q 1425 3416 1258 3105 
Q 1091 2794 978 2366 
Q 1428 2675 1881 2675 
Q 2316 2675 2634 2325 
Q 2953 1975 2953 1425 
Q 2953 894 2631 456 
Q 2244 -75 1606 -75 
Q 1172 -75 869 213 
Q 275 772 275 1663 
Q 275 2231 503 2743 
Q 731 3256 1154 3653 
Q 1578 4050 1965 4187 
Q 2353 4325 2688 4325 
L 2869 4325 
z
M 925 2138 
Q 869 1716 869 1456 
Q 869 1156 980 804 
Q 1091 453 1309 247 
Q 1469 100 1697 100 
Q 1969 100 2183 356 
Q 2397 613 2397 1088 
Q 2397 1622 2184 2012 
Q 1972 2403 1581 2403 
Q 1463 2403 1327 2353 
Q 1191 2303 925 2138 
z
" transform="scale(0.015625)"/>
      <path id="TimesNewRomanPSMT-37" d="M 644 4238 
L 2916 4238 
L 2916 4119 
L 1503 -88 
L 1153 -88 
L 2419 3728 
L 1253 3728 
Q 900 3728 750 3644 
Q 488 3500 328 3200 
L 238 3234 
L 644 4238 
z
" transform="scale(0.015625)"/>
     </defs>
     <use xlink:href="#TimesNewRomanPSMT-69"/>
     <use xlink:href="#TimesNewRomanPSMT-6e" x="27.783203"/>
     <use xlink:href="#TimesNewRomanPSMT-73" x="77.783203"/>
     <use xlink:href="#TimesNewRomanPSMT-65" x="116.699219"/>
     <use xlink:href="#TimesNewRomanPSMT-72" x="161.083984"/>
     <use xlink:href="#TimesNewRomanPSMT-74" x="194.384766"/>
     <use xlink:href="#TimesNewRomanPSMT-76" x="222.167969"/>
     <use xlink:href="#TimesNewRomanPSMT-61" x="272.167969"/>
     <use xlink:href="#TimesNewRomanPSMT-6c" x="316.552734"/>
     <use xlink:href="#TimesNewRomanPSMT-75" x="344.335938"/>
     <use xlink:href="#TimesNewRomanPSMT-65" x="394.335938"/>
     <use xlink:href="#TimesNewRomanPSMT-3a" x="438.720703"/>
     <use xlink:href="#TimesNewRomanPSMT-36" x="466.503906"/>
     <use xlink:href="#TimesNewRomanPSMT-36" x="516.503906"/>
     <use xlink:href="#TimesNewRomanPSMT-37" x="566.503906"/>
    </g>
    <!--  -->
    <g transform="translate(321.131641 101.607328) scale(0.1 -0.1)"/>
   </g>
   <g id="text_4">
    <!-- 24.1% -->
    <g transform="translate(269.593324 132.989182) scale(0.1 -0.1)">
     <defs>
      <path id="TimesNewRomanPSMT-32" d="M 2934 816 
L 2638 0 
L 138 0 
L 138 116 
Q 1241 1122 1691 1759 
Q 2141 2397 2141 2925 
Q 2141 3328 1894 3587 
Q 1647 3847 1303 3847 
Q 991 3847 742 3664 
Q 494 3481 375 3128 
L 259 3128 
Q 338 3706 661 4015 
Q 984 4325 1469 4325 
Q 1984 4325 2329 3994 
Q 2675 3663 2675 3213 
Q 2675 2891 2525 2569 
Q 2294 2063 1775 1497 
Q 997 647 803 472 
L 1909 472 
Q 2247 472 2383 497 
Q 2519 522 2628 598 
Q 2738 675 2819 816 
L 2934 816 
z
" transform="scale(0.015625)"/>
      <path id="TimesNewRomanPSMT-34" d="M 2978 1563 
L 2978 1119 
L 2409 1119 
L 2409 0 
L 1894 0 
L 1894 1119 
L 100 1119 
L 100 1519 
L 2066 4325 
L 2409 4325 
L 2409 1563 
L 2978 1563 
z
M 1894 1563 
L 1894 3666 
L 406 1563 
L 1894 1563 
z
" transform="scale(0.015625)"/>
     </defs>
     <use xlink:href="#TimesNewRomanPSMT-32"/>
     <use xlink:href="#TimesNewRomanPSMT-34" x="50"/>
     <use xlink:href="#TimesNewRomanPSMT-2e" x="100"/>
     <use xlink:href="#TimesNewRomanPSMT-31" x="125"/>
     <use xlink:href="#TimesNewRomanPSMT-25" x="175"/>
    </g>
   </g>
   <g id="text_5">
    <!-- add:396 -->
    <g transform="translate(159.042681 63.556328) scale(0.1 -0.1)">
     <defs>
      <path id="TimesNewRomanPSMT-64" d="M 2222 322 
Q 2013 103 1813 7 
Q 1613 -88 1381 -88 
Q 913 -88 563 304 
Q 213 697 213 1313 
Q 213 1928 600 2439 
Q 988 2950 1597 2950 
Q 1975 2950 2222 2709 
L 2222 3238 
Q 2222 3728 2198 3840 
Q 2175 3953 2125 3993 
Q 2075 4034 2000 4034 
Q 1919 4034 1784 3984 
L 1744 4094 
L 2597 4444 
L 2738 4444 
L 2738 1134 
Q 2738 631 2761 520 
Q 2784 409 2836 365 
Q 2888 322 2956 322 
Q 3041 322 3181 375 
L 3216 266 
L 2366 -88 
L 2222 -88 
L 2222 322 
z
M 2222 541 
L 2222 2016 
Q 2203 2228 2109 2403 
Q 2016 2578 1861 2667 
Q 1706 2756 1559 2756 
Q 1284 2756 1069 2509 
Q 784 2184 784 1559 
Q 784 928 1059 592 
Q 1334 256 1672 256 
Q 1956 256 2222 541 
z
" transform="scale(0.015625)"/>
      <path id="TimesNewRomanPSMT-33" d="M 325 3431 
Q 506 3859 782 4092 
Q 1059 4325 1472 4325 
Q 1981 4325 2253 3994 
Q 2459 3747 2459 3466 
Q 2459 3003 1878 2509 
Q 2269 2356 2469 2072 
Q 2669 1788 2669 1403 
Q 2669 853 2319 450 
Q 1863 -75 997 -75 
Q 569 -75 414 31 
Q 259 138 259 259 
Q 259 350 332 419 
Q 406 488 509 488 
Q 588 488 669 463 
Q 722 447 909 348 
Q 1097 250 1169 231 
Q 1284 197 1416 197 
Q 1734 197 1970 444 
Q 2206 691 2206 1028 
Q 2206 1275 2097 1509 
Q 2016 1684 1919 1775 
Q 1784 1900 1550 2001 
Q 1316 2103 1072 2103 
L 972 2103 
L 972 2197 
Q 1219 2228 1467 2375 
Q 1716 2522 1828 2728 
Q 1941 2934 1941 3181 
Q 1941 3503 1739 3701 
Q 1538 3900 1238 3900 
Q 753 3900 428 3381 
L 325 3431 
z
" transform="scale(0.015625)"/>
      <path id="TimesNewRomanPSMT-39" d="M 338 -88 
L 338 28 
Q 744 34 1094 217 
Q 1444 400 1770 856 
Q 2097 1313 2225 1859 
Q 1734 1544 1338 1544 
Q 891 1544 572 1889 
Q 253 2234 253 2806 
Q 253 3363 572 3797 
Q 956 4325 1575 4325 
Q 2097 4325 2469 3894 
Q 2925 3359 2925 2575 
Q 2925 1869 2578 1258 
Q 2231 647 1613 244 
Q 1109 -88 516 -88 
L 338 -88 
z
M 2275 2091 
Q 2331 2497 2331 2741 
Q 2331 3044 2228 3395 
Q 2125 3747 1936 3934 
Q 1747 4122 1506 4122 
Q 1228 4122 1018 3872 
Q 809 3622 809 3128 
Q 809 2469 1088 2097 
Q 1291 1828 1588 1828 
Q 1731 1828 1928 1897 
Q 2125 1966 2275 2091 
z
" transform="scale(0.015625)"/>
     </defs>
     <use xlink:href="#TimesNewRomanPSMT-61"/>
     <use xlink:href="#TimesNewRomanPSMT-64" x="44.384766"/>
     <use xlink:href="#TimesNewRomanPSMT-64" x="94.384766"/>
     <use xlink:href="#TimesNewRomanPSMT-3a" x="144.384766"/>
     <use xlink:href="#TimesNewRomanPSMT-33" x="172.167969"/>
     <use xlink:href="#TimesNewRomanPSMT-39" x="222.167969"/>
     <use xlink:href="#TimesNewRomanPSMT-36" x="272.167969"/>
    </g>
    <!--  -->
    <g transform="translate(191.259869 74.027891) scale(0.1 -0.1)"/>
   </g>
   <g id="text_6">
    <!-- 14.3% -->
    <g transform="translate(198.754175 117.945852) scale(0.1 -0.1)">
     <use xlink:href="#TimesNewRomanPSMT-31"/>
     <use xlink:href="#TimesNewRomanPSMT-34" x="50"/>
     <use xlink:href="#TimesNewRomanPSMT-2e" x="100"/>
     <use xlink:href="#TimesNewRomanPSMT-33" x="125"/>
     <use xlink:href="#TimesNewRomanPSMT-25" x="175"/>
    </g>
   </g>
   <g id="text_7">
    <!-- inttoptr:298 -->
    <g transform="translate(80.649305 127.162635) scale(0.1 -0.1)">
     <defs>
      <path id="TimesNewRomanPSMT-6f" d="M 1600 2947 
Q 2250 2947 2644 2453 
Q 2978 2031 2978 1484 
Q 2978 1100 2793 706 
Q 2609 313 2286 112 
Q 1963 -88 1566 -88 
Q 919 -88 538 428 
Q 216 863 216 1403 
Q 216 1797 411 2186 
Q 606 2575 925 2761 
Q 1244 2947 1600 2947 
z
M 1503 2744 
Q 1338 2744 1170 2645 
Q 1003 2547 900 2300 
Q 797 2053 797 1666 
Q 797 1041 1045 587 
Q 1294 134 1700 134 
Q 2003 134 2200 384 
Q 2397 634 2397 1244 
Q 2397 2006 2069 2444 
Q 1847 2744 1503 2744 
z
" transform="scale(0.015625)"/>
      <path id="TimesNewRomanPSMT-70" d="M -6 2578 
L 875 2934 
L 994 2934 
L 994 2266 
Q 1216 2644 1439 2795 
Q 1663 2947 1909 2947 
Q 2341 2947 2628 2609 
Q 2981 2197 2981 1534 
Q 2981 794 2556 309 
Q 2206 -88 1675 -88 
Q 1444 -88 1275 -22 
Q 1150 25 994 166 
L 994 -706 
Q 994 -1000 1030 -1079 
Q 1066 -1159 1155 -1206 
Q 1244 -1253 1478 -1253 
L 1478 -1369 
L -22 -1369 
L -22 -1253 
L 56 -1253 
Q 228 -1256 350 -1188 
Q 409 -1153 442 -1076 
Q 475 -1000 475 -688 
L 475 2019 
Q 475 2297 450 2372 
Q 425 2447 370 2484 
Q 316 2522 222 2522 
Q 147 2522 31 2478 
L -6 2578 
z
M 994 2081 
L 994 1013 
Q 994 666 1022 556 
Q 1066 375 1236 237 
Q 1406 100 1666 100 
Q 1978 100 2172 344 
Q 2425 663 2425 1241 
Q 2425 1897 2138 2250 
Q 1938 2494 1663 2494 
Q 1513 2494 1366 2419 
Q 1253 2363 994 2081 
z
" transform="scale(0.015625)"/>
      <path id="TimesNewRomanPSMT-38" d="M 1228 2134 
Q 725 2547 579 2797 
Q 434 3047 434 3316 
Q 434 3728 753 4026 
Q 1072 4325 1600 4325 
Q 2113 4325 2425 4047 
Q 2738 3769 2738 3413 
Q 2738 3175 2569 2928 
Q 2400 2681 1866 2347 
Q 2416 1922 2594 1678 
Q 2831 1359 2831 1006 
Q 2831 559 2490 242 
Q 2150 -75 1597 -75 
Q 994 -75 656 303 
Q 388 606 388 966 
Q 388 1247 577 1523 
Q 766 1800 1228 2134 
z
M 1719 2469 
Q 2094 2806 2194 3001 
Q 2294 3197 2294 3444 
Q 2294 3772 2109 3958 
Q 1925 4144 1606 4144 
Q 1288 4144 1088 3959 
Q 888 3775 888 3528 
Q 888 3366 970 3203 
Q 1053 3041 1206 2894 
L 1719 2469 
z
M 1375 2016 
Q 1116 1797 991 1539 
Q 866 1281 866 981 
Q 866 578 1086 336 
Q 1306 94 1647 94 
Q 1984 94 2187 284 
Q 2391 475 2391 747 
Q 2391 972 2272 1150 
Q 2050 1481 1375 2016 
z
" transform="scale(0.015625)"/>
     </defs>
     <use xlink:href="#TimesNewRomanPSMT-69"/>
     <use xlink:href="#TimesNewRomanPSMT-6e" x="27.783203"/>
     <use xlink:href="#TimesNewRomanPSMT-74" x="77.783203"/>
     <use xlink:href="#TimesNewRomanPSMT-74" x="105.566406"/>
     <use xlink:href="#TimesNewRomanPSMT-6f" x="133.349609"/>
     <use xlink:href="#TimesNewRomanPSMT-70" x="183.349609"/>
     <use xlink:href="#TimesNewRomanPSMT-74" x="233.349609"/>
     <use xlink:href="#TimesNewRomanPSMT-72" x="261.132812"/>
     <use xlink:href="#TimesNewRomanPSMT-3a" x="294.433594"/>
     <use xlink:href="#TimesNewRomanPSMT-32" x="322.216797"/>
     <use xlink:href="#TimesNewRomanPSMT-39" x="372.216797"/>
     <use xlink:href="#TimesNewRomanPSMT-38" x="422.216797"/>
    </g>
    <!--  -->
    <g transform="translate(127.869618 137.634198) scale(0.1 -0.1)"/>
   </g>
   <g id="text_8">
    <!-- 10.8% -->
    <g transform="translate(164.177675 152.640202) scale(0.1 -0.1)">
     <use xlink:href="#TimesNewRomanPSMT-31"/>
     <use xlink:href="#TimesNewRomanPSMT-30" x="50"/>
     <use xlink:href="#TimesNewRomanPSMT-2e" x="100"/>
     <use xlink:href="#TimesNewRomanPSMT-38" x="125"/>
     <use xlink:href="#TimesNewRomanPSMT-25" x="175"/>
    </g>
   </g>
   <g id="text_9">
    <!-- phi:237 -->
    <g transform="translate(91.25097 196.860832) scale(0.1 -0.1)">
     <defs>
      <path id="TimesNewRomanPSMT-68" d="M 1041 4444 
L 1041 2350 
Q 1388 2731 1591 2839 
Q 1794 2947 1997 2947 
Q 2241 2947 2416 2812 
Q 2591 2678 2675 2391 
Q 2734 2191 2734 1659 
L 2734 647 
Q 2734 375 2778 275 
Q 2809 200 2884 156 
Q 2959 113 3159 113 
L 3159 0 
L 1753 0 
L 1753 113 
L 1819 113 
Q 2019 113 2097 173 
Q 2175 234 2206 353 
Q 2216 403 2216 647 
L 2216 1659 
Q 2216 2128 2167 2275 
Q 2119 2422 2012 2495 
Q 1906 2569 1756 2569 
Q 1603 2569 1437 2487 
Q 1272 2406 1041 2159 
L 1041 647 
Q 1041 353 1073 281 
Q 1106 209 1195 161 
Q 1284 113 1503 113 
L 1503 0 
L 84 0 
L 84 113 
Q 275 113 384 172 
Q 447 203 484 290 
Q 522 378 522 647 
L 522 3238 
Q 522 3728 498 3840 
Q 475 3953 426 3993 
Q 378 4034 297 4034 
Q 231 4034 84 3984 
L 41 4094 
L 897 4444 
L 1041 4444 
z
" transform="scale(0.015625)"/>
     </defs>
     <use xlink:href="#TimesNewRomanPSMT-70"/>
     <use xlink:href="#TimesNewRomanPSMT-68" x="50"/>
     <use xlink:href="#TimesNewRomanPSMT-69" x="100"/>
     <use xlink:href="#TimesNewRomanPSMT-3a" x="127.783203"/>
     <use xlink:href="#TimesNewRomanPSMT-32" x="155.566406"/>
     <use xlink:href="#TimesNewRomanPSMT-33" x="205.566406"/>
     <use xlink:href="#TimesNewRomanPSMT-37" x="255.566406"/>
    </g>
    <!--  -->
    <g transform="translate(121.80722 207.332395) scale(0.1 -0.1)"/>
   </g>
   <g id="text_10">
    <!-- 8.6% -->
    <g transform="translate(163.370912 190.6574) scale(0.1 -0.1)">
     <use xlink:href="#TimesNewRomanPSMT-38"/>
     <use xlink:href="#TimesNewRomanPSMT-2e" x="50"/>
     <use xlink:href="#TimesNewRomanPSMT-36" x="75"/>
     <use xlink:href="#TimesNewRomanPSMT-25" x="125"/>
    </g>
   </g>
   <g id="text_11">
    <!-- call:211 -->
    <g transform="translate(116.659602 249.316182) scale(0.1 -0.1)">
     <defs>
      <path id="TimesNewRomanPSMT-63" d="M 2631 1088 
Q 2516 522 2178 217 
Q 1841 -88 1431 -88 
Q 944 -88 581 321 
Q 219 731 219 1428 
Q 219 2103 620 2525 
Q 1022 2947 1584 2947 
Q 2006 2947 2278 2723 
Q 2550 2500 2550 2259 
Q 2550 2141 2473 2067 
Q 2397 1994 2259 1994 
Q 2075 1994 1981 2113 
Q 1928 2178 1911 2362 
Q 1894 2547 1784 2644 
Q 1675 2738 1481 2738 
Q 1169 2738 978 2506 
Q 725 2200 725 1697 
Q 725 1184 976 792 
Q 1228 400 1656 400 
Q 1963 400 2206 609 
Q 2378 753 2541 1131 
L 2631 1088 
z
" transform="scale(0.015625)"/>
     </defs>
     <use xlink:href="#TimesNewRomanPSMT-63"/>
     <use xlink:href="#TimesNewRomanPSMT-61" x="44.384766"/>
     <use xlink:href="#TimesNewRomanPSMT-6c" x="88.769531"/>
     <use xlink:href="#TimesNewRomanPSMT-6c" x="116.552734"/>
     <use xlink:href="#TimesNewRomanPSMT-3a" x="144.335938"/>
     <use xlink:href="#TimesNewRomanPSMT-32" x="172.119141"/>
     <use xlink:href="#TimesNewRomanPSMT-31" x="222.119141"/>
     <use xlink:href="#TimesNewRomanPSMT-31" x="268.369141"/>
    </g>
    <!--  -->
    <g transform="translate(148.497102 259.787745) scale(0.1 -0.1)"/>
   </g>
   <g id="text_12">
    <!-- 7.6% -->
    <g transform="translate(177.92903 219.269409) scale(0.1 -0.1)">
     <use xlink:href="#TimesNewRomanPSMT-37"/>
     <use xlink:href="#TimesNewRomanPSMT-2e" x="50"/>
     <use xlink:href="#TimesNewRomanPSMT-36" x="75"/>
     <use xlink:href="#TimesNewRomanPSMT-25" x="125"/>
    </g>
   </g>
   <g id="text_13">
    <!-- getelementptr:186 -->
    <g transform="translate(118.260018 279.721301) scale(0.1 -0.1)">
     <defs>
      <path id="TimesNewRomanPSMT-67" d="M 966 1044 
Q 703 1172 562 1401 
Q 422 1631 422 1909 
Q 422 2334 742 2640 
Q 1063 2947 1563 2947 
Q 1972 2947 2272 2747 
L 2878 2747 
Q 3013 2747 3034 2739 
Q 3056 2731 3066 2713 
Q 3084 2684 3084 2613 
Q 3084 2531 3069 2500 
Q 3059 2484 3036 2475 
Q 3013 2466 2878 2466 
L 2506 2466 
Q 2681 2241 2681 1891 
Q 2681 1491 2375 1206 
Q 2069 922 1553 922 
Q 1341 922 1119 984 
Q 981 866 932 777 
Q 884 688 884 625 
Q 884 572 936 522 
Q 988 472 1138 450 
Q 1225 438 1575 428 
Q 2219 413 2409 384 
Q 2700 344 2873 169 
Q 3047 -6 3047 -263 
Q 3047 -616 2716 -925 
Q 2228 -1381 1444 -1381 
Q 841 -1381 425 -1109 
Q 191 -953 191 -784 
Q 191 -709 225 -634 
Q 278 -519 444 -313 
Q 466 -284 763 25 
Q 600 122 533 198 
Q 466 275 466 372 
Q 466 481 555 628 
Q 644 775 966 1044 
z
M 1509 2797 
Q 1278 2797 1122 2612 
Q 966 2428 966 2047 
Q 966 1553 1178 1281 
Q 1341 1075 1591 1075 
Q 1828 1075 1981 1253 
Q 2134 1431 2134 1813 
Q 2134 2309 1919 2591 
Q 1759 2797 1509 2797 
z
M 934 0 
Q 788 -159 713 -296 
Q 638 -434 638 -550 
Q 638 -700 819 -813 
Q 1131 -1006 1722 -1006 
Q 2284 -1006 2551 -807 
Q 2819 -609 2819 -384 
Q 2819 -222 2659 -153 
Q 2497 -84 2016 -72 
Q 1313 -53 934 0 
z
" transform="scale(0.015625)"/>
      <path id="TimesNewRomanPSMT-6d" d="M 1050 2338 
Q 1363 2650 1419 2697 
Q 1559 2816 1721 2881 
Q 1884 2947 2044 2947 
Q 2313 2947 2506 2790 
Q 2700 2634 2766 2338 
Q 3088 2713 3309 2830 
Q 3531 2947 3766 2947 
Q 3994 2947 4170 2830 
Q 4347 2713 4450 2447 
Q 4519 2266 4519 1878 
L 4519 647 
Q 4519 378 4559 278 
Q 4591 209 4675 161 
Q 4759 113 4950 113 
L 4950 0 
L 3538 0 
L 3538 113 
L 3597 113 
Q 3781 113 3884 184 
Q 3956 234 3988 344 
Q 4000 397 4000 647 
L 4000 1878 
Q 4000 2228 3916 2372 
Q 3794 2572 3525 2572 
Q 3359 2572 3192 2489 
Q 3025 2406 2788 2181 
L 2781 2147 
L 2788 2013 
L 2788 647 
Q 2788 353 2820 281 
Q 2853 209 2943 161 
Q 3034 113 3253 113 
L 3253 0 
L 1806 0 
L 1806 113 
Q 2044 113 2133 169 
Q 2222 225 2256 338 
Q 2272 391 2272 647 
L 2272 1878 
Q 2272 2228 2169 2381 
Q 2031 2581 1784 2581 
Q 1616 2581 1450 2491 
Q 1191 2353 1050 2181 
L 1050 647 
Q 1050 366 1089 281 
Q 1128 197 1204 155 
Q 1281 113 1516 113 
L 1516 0 
L 100 0 
L 100 113 
Q 297 113 375 155 
Q 453 197 493 289 
Q 534 381 534 647 
L 534 1741 
Q 534 2213 506 2350 
Q 484 2453 437 2492 
Q 391 2531 309 2531 
Q 222 2531 100 2484 
L 53 2597 
L 916 2947 
L 1050 2947 
L 1050 2338 
z
" transform="scale(0.015625)"/>
     </defs>
     <use xlink:href="#TimesNewRomanPSMT-67"/>
     <use xlink:href="#TimesNewRomanPSMT-65" x="50"/>
     <use xlink:href="#TimesNewRomanPSMT-74" x="94.384766"/>
     <use xlink:href="#TimesNewRomanPSMT-65" x="122.167969"/>
     <use xlink:href="#TimesNewRomanPSMT-6c" x="166.552734"/>
     <use xlink:href="#TimesNewRomanPSMT-65" x="194.335938"/>
     <use xlink:href="#TimesNewRomanPSMT-6d" x="238.720703"/>
     <use xlink:href="#TimesNewRomanPSMT-65" x="316.503906"/>
     <use xlink:href="#TimesNewRomanPSMT-6e" x="360.888672"/>
     <use xlink:href="#TimesNewRomanPSMT-74" x="410.888672"/>
     <use xlink:href="#TimesNewRomanPSMT-70" x="438.671875"/>
     <use xlink:href="#TimesNewRomanPSMT-74" x="488.671875"/>
     <use xlink:href="#TimesNewRomanPSMT-72" x="516.455078"/>
     <use xlink:href="#TimesNewRomanPSMT-3a" x="549.755859"/>
     <use xlink:href="#TimesNewRomanPSMT-31" x="577.539062"/>
     <use xlink:href="#TimesNewRomanPSMT-38" x="627.539062"/>
     <use xlink:href="#TimesNewRomanPSMT-36" x="677.539062"/>
    </g>
    <!--  -->
    <g transform="translate(191.014706 290.211614) scale(0.1 -0.1)"/>
   </g>
   <g id="text_14">
    <!-- 6.7% -->
    <g transform="translate(201.12045 235.859133) scale(0.1 -0.1)">
     <use xlink:href="#TimesNewRomanPSMT-36"/>
     <use xlink:href="#TimesNewRomanPSMT-2e" x="50"/>
     <use xlink:href="#TimesNewRomanPSMT-37" x="75"/>
     <use xlink:href="#TimesNewRomanPSMT-25" x="125"/>
    </g>
   </g>
   <g id="text_15">
    <!-- load:139 -->
    <g transform="translate(197.977968 288.740469) scale(0.1 -0.1)">
     <use xlink:href="#TimesNewRomanPSMT-6c"/>
     <use xlink:href="#TimesNewRomanPSMT-6f" x="27.783203"/>
     <use xlink:href="#TimesNewRomanPSMT-61" x="77.783203"/>
     <use xlink:href="#TimesNewRomanPSMT-64" x="122.167969"/>
     <use xlink:href="#TimesNewRomanPSMT-3a" x="172.167969"/>
     <use xlink:href="#TimesNewRomanPSMT-31" x="199.951172"/>
     <use xlink:href="#TimesNewRomanPSMT-33" x="249.951172"/>
     <use xlink:href="#TimesNewRomanPSMT-39" x="299.951172"/>
    </g>
    <!--  -->
    <g transform="translate(232.973281 299.212032) scale(0.1 -0.1)"/>
   </g>
   <g id="text_16">
    <!-- 5.0% -->
    <g transform="translate(224.006946 240.773566) scale(0.1 -0.1)">
     <defs>
      <path id="TimesNewRomanPSMT-35" d="M 2778 4238 
L 2534 3706 
L 1259 3706 
L 981 3138 
Q 1809 3016 2294 2522 
Q 2709 2097 2709 1522 
Q 2709 1188 2573 903 
Q 2438 619 2231 419 
Q 2025 219 1772 97 
Q 1413 -75 1034 -75 
Q 653 -75 479 54 
Q 306 184 306 341 
Q 306 428 378 495 
Q 450 563 559 563 
Q 641 563 702 538 
Q 763 513 909 409 
Q 1144 247 1384 247 
Q 1750 247 2026 523 
Q 2303 800 2303 1197 
Q 2303 1581 2056 1914 
Q 1809 2247 1375 2428 
Q 1034 2569 447 2591 
L 1259 4238 
L 2778 4238 
z
" transform="scale(0.015625)"/>
     </defs>
     <use xlink:href="#TimesNewRomanPSMT-35"/>
     <use xlink:href="#TimesNewRomanPSMT-2e" x="50"/>
     <use xlink:href="#TimesNewRomanPSMT-30" x="75"/>
     <use xlink:href="#TimesNewRomanPSMT-25" x="125"/>
    </g>
   </g>
   <g id="text_17">
    <!-- ptrtoint:90 -->
    <g transform="translate(263.138725 285.633353) scale(0.1 -0.1)">
     <use xlink:href="#TimesNewRomanPSMT-70"/>
     <use xlink:href="#TimesNewRomanPSMT-74" x="50"/>
     <use xlink:href="#TimesNewRomanPSMT-72" x="77.783203"/>
     <use xlink:href="#TimesNewRomanPSMT-74" x="111.083984"/>
     <use xlink:href="#TimesNewRomanPSMT-6f" x="138.867188"/>
     <use xlink:href="#TimesNewRomanPSMT-69" x="188.867188"/>
     <use xlink:href="#TimesNewRomanPSMT-6e" x="216.650391"/>
     <use xlink:href="#TimesNewRomanPSMT-74" x="266.650391"/>
     <use xlink:href="#TimesNewRomanPSMT-3a" x="294.433594"/>
     <use xlink:href="#TimesNewRomanPSMT-39" x="322.216797"/>
     <use xlink:href="#TimesNewRomanPSMT-30" x="372.216797"/>
    </g>
    <!--  -->
    <g transform="translate(263.138725 296.104915) scale(0.1 -0.1)"/>
   </g>
   <g id="text_18">
    <!-- 3.2% -->
    <g transform="translate(240.460824 239.078775) scale(0.1 -0.1)">
     <use xlink:href="#TimesNewRomanPSMT-33"/>
     <use xlink:href="#TimesNewRomanPSMT-2e" x="50"/>
     <use xlink:href="#TimesNewRomanPSMT-32" x="75"/>
     <use xlink:href="#TimesNewRomanPSMT-25" x="125"/>
    </g>
   </g>
   <g id="text_19">
    <!-- sub:90 -->
    <g transform="translate(285.677506 277.79789) scale(0.1 -0.1)">
     <defs>
      <path id="TimesNewRomanPSMT-62" d="M 984 2369 
Q 1400 2947 1881 2947 
Q 2322 2947 2650 2570 
Q 2978 2194 2978 1541 
Q 2978 778 2472 313 
Q 2038 -88 1503 -88 
Q 1253 -88 995 3 
Q 738 94 469 275 
L 469 3241 
Q 469 3728 445 3840 
Q 422 3953 372 3993 
Q 322 4034 247 4034 
Q 159 4034 28 3984 
L -16 4094 
L 844 4444 
L 984 4444 
L 984 2369 
z
M 984 2169 
L 984 456 
Q 1144 300 1314 220 
Q 1484 141 1663 141 
Q 1947 141 2192 453 
Q 2438 766 2438 1363 
Q 2438 1913 2192 2208 
Q 1947 2503 1634 2503 
Q 1469 2503 1303 2419 
Q 1178 2356 984 2169 
z
" transform="scale(0.015625)"/>
     </defs>
     <use xlink:href="#TimesNewRomanPSMT-73"/>
     <use xlink:href="#TimesNewRomanPSMT-75" x="38.916016"/>
     <use xlink:href="#TimesNewRomanPSMT-62" x="88.916016"/>
     <use xlink:href="#TimesNewRomanPSMT-3a" x="138.916016"/>
     <use xlink:href="#TimesNewRomanPSMT-39" x="166.699219"/>
     <use xlink:href="#TimesNewRomanPSMT-30" x="216.699219"/>
    </g>
    <!--  -->
    <g transform="translate(285.677506 288.269452) scale(0.1 -0.1)"/>
   </g>
   <g id="text_20">
    <!-- 3.2% -->
    <g transform="translate(252.754705 234.804886) scale(0.1 -0.1)">
     <use xlink:href="#TimesNewRomanPSMT-33"/>
     <use xlink:href="#TimesNewRomanPSMT-2e" x="50"/>
     <use xlink:href="#TimesNewRomanPSMT-32" x="75"/>
     <use xlink:href="#TimesNewRomanPSMT-25" x="125"/>
    </g>
   </g>
   <g id="text_21">
    <!-- urem:90 -->
    <g transform="translate(306.159757 265.555809) scale(0.1 -0.1)">
     <use xlink:href="#TimesNewRomanPSMT-75"/>
     <use xlink:href="#TimesNewRomanPSMT-72" x="50"/>
     <use xlink:href="#TimesNewRomanPSMT-65" x="83.300781"/>
     <use xlink:href="#TimesNewRomanPSMT-6d" x="127.685547"/>
     <use xlink:href="#TimesNewRomanPSMT-3a" x="205.46875"/>
     <use xlink:href="#TimesNewRomanPSMT-39" x="233.251953"/>
     <use xlink:href="#TimesNewRomanPSMT-30" x="283.251953"/>
    </g>
    <!--  -->
    <g transform="translate(306.159757 276.027371) scale(0.1 -0.1)"/>
   </g>
   <g id="text_22">
    <!-- 3.2% -->
    <g transform="translate(263.926842 228.127387) scale(0.1 -0.1)">
     <use xlink:href="#TimesNewRomanPSMT-33"/>
     <use xlink:href="#TimesNewRomanPSMT-2e" x="50"/>
     <use xlink:href="#TimesNewRomanPSMT-32" x="75"/>
     <use xlink:href="#TimesNewRomanPSMT-25" x="125"/>
    </g>
   </g>
   <g id="text_23">
    <!-- alloca:80 -->
    <g transform="translate(322.847735 250.40375) scale(0.1 -0.1)">
     <use xlink:href="#TimesNewRomanPSMT-61"/>
     <use xlink:href="#TimesNewRomanPSMT-6c" x="44.384766"/>
     <use xlink:href="#TimesNewRomanPSMT-6c" x="72.167969"/>
     <use xlink:href="#TimesNewRomanPSMT-6f" x="99.951172"/>
     <use xlink:href="#TimesNewRomanPSMT-63" x="149.951172"/>
     <use xlink:href="#TimesNewRomanPSMT-61" x="194.335938"/>
     <use xlink:href="#TimesNewRomanPSMT-3a" x="238.720703"/>
     <use xlink:href="#TimesNewRomanPSMT-38" x="266.503906"/>
     <use xlink:href="#TimesNewRomanPSMT-30" x="316.503906"/>
    </g>
    <!--  -->
    <g transform="translate(322.847735 260.875312) scale(0.1 -0.1)"/>
   </g>
   <g id="text_24">
    <!-- 2.9% -->
    <g transform="translate(273.029375 219.862628) scale(0.1 -0.1)">
     <use xlink:href="#TimesNewRomanPSMT-32"/>
     <use xlink:href="#TimesNewRomanPSMT-2e" x="50"/>
     <use xlink:href="#TimesNewRomanPSMT-39" x="75"/>
     <use xlink:href="#TimesNewRomanPSMT-25" x="125"/>
    </g>
   </g>
   <g id="text_25">
    <!-- icmp:66 -->
    <g transform="translate(334.635661 235.038416) scale(0.1 -0.1)">
     <use xlink:href="#TimesNewRomanPSMT-69"/>
     <use xlink:href="#TimesNewRomanPSMT-63" x="27.783203"/>
     <use xlink:href="#TimesNewRomanPSMT-6d" x="72.167969"/>
     <use xlink:href="#TimesNewRomanPSMT-70" x="149.951172"/>
     <use xlink:href="#TimesNewRomanPSMT-3a" x="199.951172"/>
     <use xlink:href="#TimesNewRomanPSMT-36" x="227.734375"/>
     <use xlink:href="#TimesNewRomanPSMT-36" x="277.734375"/>
    </g>
    <!--  -->
    <g transform="translate(334.635661 245.509978) scale(0.1 -0.1)"/>
   </g>
   <g id="text_26">
    <!-- 2.4% -->
    <g transform="translate(279.459153 211.481536) scale(0.1 -0.1)">
     <use xlink:href="#TimesNewRomanPSMT-32"/>
     <use xlink:href="#TimesNewRomanPSMT-2e" x="50"/>
     <use xlink:href="#TimesNewRomanPSMT-34" x="75"/>
     <use xlink:href="#TimesNewRomanPSMT-25" x="125"/>
    </g>
   </g>
   <g id="text_27">
    <!-- mul:50 -->
    <g transform="translate(342.094242 221.572773) scale(0.1 -0.1)">
     <use xlink:href="#TimesNewRomanPSMT-6d"/>
     <use xlink:href="#TimesNewRomanPSMT-75" x="77.783203"/>
     <use xlink:href="#TimesNewRomanPSMT-6c" x="127.783203"/>
     <use xlink:href="#TimesNewRomanPSMT-3a" x="155.566406"/>
     <use xlink:href="#TimesNewRomanPSMT-35" x="183.349609"/>
     <use xlink:href="#TimesNewRomanPSMT-30" x="233.349609"/>
    </g>
    <!--  -->
    <g transform="translate(342.094242 232.044336) scale(0.1 -0.1)"/>
   </g>
   <g id="text_28">
    <!-- 1.8% -->
    <g transform="translate(283.52747 204.136641) scale(0.1 -0.1)">
     <use xlink:href="#TimesNewRomanPSMT-31"/>
     <use xlink:href="#TimesNewRomanPSMT-2e" x="50"/>
     <use xlink:href="#TimesNewRomanPSMT-38" x="75"/>
     <use xlink:href="#TimesNewRomanPSMT-25" x="125"/>
    </g>
   </g>
   <g id="text_29">
    <!-- or:30 -->
    <g transform="translate(346.17784 211.769173) scale(0.1 -0.1)">
     <use xlink:href="#TimesNewRomanPSMT-6f"/>
     <use xlink:href="#TimesNewRomanPSMT-72" x="50"/>
     <use xlink:href="#TimesNewRomanPSMT-3a" x="83.300781"/>
     <use xlink:href="#TimesNewRomanPSMT-33" x="111.083984"/>
     <use xlink:href="#TimesNewRomanPSMT-30" x="161.083984"/>
    </g>
    <!--  -->
    <g transform="translate(346.17784 222.240736) scale(0.1 -0.1)"/>
   </g>
   <g id="text_30">
    <!-- 1.1% -->
    <g transform="translate(285.754887 198.789222) scale(0.1 -0.1)">
     <use xlink:href="#TimesNewRomanPSMT-31"/>
     <use xlink:href="#TimesNewRomanPSMT-2e" x="50"/>
     <use xlink:href="#TimesNewRomanPSMT-31" x="75"/>
     <use xlink:href="#TimesNewRomanPSMT-25" x="125"/>
    </g>
   </g>
   <g id="text_31">
    <!-- extractvalue:27 -->
    <g transform="translate(348.536907 204.578149) scale(0.1 -0.1)">
     <defs>
      <path id="TimesNewRomanPSMT-78" d="M 84 2863 
L 1431 2863 
L 1431 2747 
Q 1303 2747 1251 2703 
Q 1200 2659 1200 2588 
Q 1200 2513 1309 2356 
Q 1344 2306 1413 2200 
L 1616 1875 
L 1850 2200 
Q 2075 2509 2075 2591 
Q 2075 2656 2022 2701 
Q 1969 2747 1850 2747 
L 1850 2863 
L 2819 2863 
L 2819 2747 
Q 2666 2738 2553 2663 
Q 2400 2556 2134 2200 
L 1744 1678 
L 2456 653 
Q 2719 275 2831 198 
Q 2944 122 3122 113 
L 3122 0 
L 1772 0 
L 1772 113 
Q 1913 113 1991 175 
Q 2050 219 2050 291 
Q 2050 363 1850 653 
L 1431 1266 
L 972 653 
Q 759 369 759 316 
Q 759 241 829 180 
Q 900 119 1041 113 
L 1041 0 
L 106 0 
L 106 113 
Q 219 128 303 191 
Q 422 281 703 653 
L 1303 1450 
L 759 2238 
Q 528 2575 401 2661 
Q 275 2747 84 2747 
L 84 2863 
z
" transform="scale(0.015625)"/>
     </defs>
     <use xlink:href="#TimesNewRomanPSMT-65"/>
     <use xlink:href="#TimesNewRomanPSMT-78" x="44.384766"/>
     <use xlink:href="#TimesNewRomanPSMT-74" x="94.384766"/>
     <use xlink:href="#TimesNewRomanPSMT-72" x="122.167969"/>
     <use xlink:href="#TimesNewRomanPSMT-61" x="155.46875"/>
     <use xlink:href="#TimesNewRomanPSMT-63" x="199.853516"/>
     <use xlink:href="#TimesNewRomanPSMT-74" x="244.238281"/>
     <use xlink:href="#TimesNewRomanPSMT-76" x="272.021484"/>
     <use xlink:href="#TimesNewRomanPSMT-61" x="322.021484"/>
     <use xlink:href="#TimesNewRomanPSMT-6c" x="366.40625"/>
     <use xlink:href="#TimesNewRomanPSMT-75" x="394.189453"/>
     <use xlink:href="#TimesNewRomanPSMT-65" x="444.189453"/>
     <use xlink:href="#TimesNewRomanPSMT-3a" x="488.574219"/>
     <use xlink:href="#TimesNewRomanPSMT-32" x="516.357422"/>
     <use xlink:href="#TimesNewRomanPSMT-37" x="566.357422"/>
    </g>
    <!--  -->
    <g transform="translate(348.536907 215.049711) scale(0.1 -0.1)"/>
   </g>
   <g id="text_32">
    <!-- 1.0% -->
    <g transform="translate(287.041651 194.866845) scale(0.1 -0.1)">
     <use xlink:href="#TimesNewRomanPSMT-31"/>
     <use xlink:href="#TimesNewRomanPSMT-2e" x="50"/>
     <use xlink:href="#TimesNewRomanPSMT-30" x="75"/>
     <use xlink:href="#TimesNewRomanPSMT-25" x="125"/>
    </g>
   </g>
   <g id="text_33">
    <!-- fadd:20 -->
    <g transform="translate(350.129319 198.544027) scale(0.1 -0.1)">
     <defs>
      <path id="TimesNewRomanPSMT-66" d="M 1319 2638 
L 1319 756 
Q 1319 356 1406 250 
Q 1522 113 1716 113 
L 1975 113 
L 1975 0 
L 266 0 
L 266 113 
L 394 113 
Q 519 113 622 175 
Q 725 238 764 344 
Q 803 450 803 756 
L 803 2638 
L 247 2638 
L 247 2863 
L 803 2863 
L 803 3050 
Q 803 3478 940 3775 
Q 1078 4072 1361 4255 
Q 1644 4438 1997 4438 
Q 2325 4438 2600 4225 
Q 2781 4084 2781 3909 
Q 2781 3816 2700 3733 
Q 2619 3650 2525 3650 
Q 2453 3650 2373 3701 
Q 2294 3753 2178 3923 
Q 2063 4094 1966 4153 
Q 1869 4213 1750 4213 
Q 1606 4213 1506 4136 
Q 1406 4059 1362 3898 
Q 1319 3738 1319 3069 
L 1319 2863 
L 2056 2863 
L 2056 2638 
L 1319 2638 
z
" transform="scale(0.015625)"/>
     </defs>
     <use xlink:href="#TimesNewRomanPSMT-66"/>
     <use xlink:href="#TimesNewRomanPSMT-61" x="33.300781"/>
     <use xlink:href="#TimesNewRomanPSMT-64" x="77.685547"/>
     <use xlink:href="#TimesNewRomanPSMT-64" x="127.685547"/>
     <use xlink:href="#TimesNewRomanPSMT-3a" x="177.685547"/>
     <use xlink:href="#TimesNewRomanPSMT-32" x="205.46875"/>
     <use xlink:href="#TimesNewRomanPSMT-30" x="255.46875"/>
    </g>
    <!--  -->
    <g transform="translate(350.129319 209.015589) scale(0.1 -0.1)"/>
   </g>
   <g id="text_34">
    <!-- 0.7% -->
    <g transform="translate(287.91024 191.575506) scale(0.1 -0.1)">
     <use xlink:href="#TimesNewRomanPSMT-30"/>
     <use xlink:href="#TimesNewRomanPSMT-2e" x="50"/>
     <use xlink:href="#TimesNewRomanPSMT-37" x="75"/>
     <use xlink:href="#TimesNewRomanPSMT-25" x="125"/>
    </g>
   </g>
   <g id="text_35">
    <!-- lshr:19 -->
    <g transform="translate(351.205063 193.47834) scale(0.1 -0.1)">
     <use xlink:href="#TimesNewRomanPSMT-6c"/>
     <use xlink:href="#TimesNewRomanPSMT-73" x="27.783203"/>
     <use xlink:href="#TimesNewRomanPSMT-68" x="66.699219"/>
     <use xlink:href="#TimesNewRomanPSMT-72" x="116.699219"/>
     <use xlink:href="#TimesNewRomanPSMT-3a" x="150"/>
     <use xlink:href="#TimesNewRomanPSMT-31" x="177.783203"/>
     <use xlink:href="#TimesNewRomanPSMT-39" x="227.783203"/>
    </g>
    <!--  -->
    <g transform="translate(351.205063 203.949903) scale(0.1 -0.1)"/>
   </g>
   <g id="text_36">
    <!-- 0.7% -->
    <g transform="translate(288.497009 188.812404) scale(0.1 -0.1)">
     <use xlink:href="#TimesNewRomanPSMT-30"/>
     <use xlink:href="#TimesNewRomanPSMT-2e" x="50"/>
     <use xlink:href="#TimesNewRomanPSMT-37" x="75"/>
     <use xlink:href="#TimesNewRomanPSMT-25" x="125"/>
    </g>
   </g>
   <g id="text_37">
    <!-- fmul:17 -->
    <g transform="translate(351.998355 188.764274) scale(0.1 -0.1)">
     <use xlink:href="#TimesNewRomanPSMT-66"/>
     <use xlink:href="#TimesNewRomanPSMT-6d" x="33.300781"/>
     <use xlink:href="#TimesNewRomanPSMT-75" x="111.083984"/>
     <use xlink:href="#TimesNewRomanPSMT-6c" x="161.083984"/>
     <use xlink:href="#TimesNewRomanPSMT-3a" x="188.867188"/>
     <use xlink:href="#TimesNewRomanPSMT-31" x="216.650391"/>
     <use xlink:href="#TimesNewRomanPSMT-37" x="266.650391"/>
    </g>
    <!--  -->
    <g transform="translate(351.998355 199.235837) scale(0.1 -0.1)"/>
   </g>
   <g id="text_38">
    <!-- 0.6% -->
    <g transform="translate(288.929713 186.241096) scale(0.1 -0.1)">
     <use xlink:href="#TimesNewRomanPSMT-30"/>
     <use xlink:href="#TimesNewRomanPSMT-2e" x="50"/>
     <use xlink:href="#TimesNewRomanPSMT-36" x="75"/>
     <use xlink:href="#TimesNewRomanPSMT-25" x="125"/>
    </g>
   </g>
   <g id="text_39">
    <!-- shl:15 -->
    <g transform="translate(352.541445 184.549862) scale(0.1 -0.1)">
     <use xlink:href="#TimesNewRomanPSMT-73"/>
     <use xlink:href="#TimesNewRomanPSMT-68" x="38.916016"/>
     <use xlink:href="#TimesNewRomanPSMT-6c" x="88.916016"/>
     <use xlink:href="#TimesNewRomanPSMT-3a" x="116.699219"/>
     <use xlink:href="#TimesNewRomanPSMT-31" x="144.482422"/>
     <use xlink:href="#TimesNewRomanPSMT-35" x="194.482422"/>
    </g>
    <!--  -->
    <g transform="translate(352.541445 195.021424) scale(0.1 -0.1)"/>
   </g>
   <g id="text_40">
    <!-- 0.5% -->
    <g transform="translate(289.225945 183.942325) scale(0.1 -0.1)">
     <use xlink:href="#TimesNewRomanPSMT-30"/>
     <use xlink:href="#TimesNewRomanPSMT-2e" x="50"/>
     <use xlink:href="#TimesNewRomanPSMT-35" x="75"/>
     <use xlink:href="#TimesNewRomanPSMT-25" x="125"/>
    </g>
   </g>
   <g id="text_41">
    <!-- fcmp:12 -->
    <g transform="translate(352.880477 180.980557) scale(0.1 -0.1)">
     <use xlink:href="#TimesNewRomanPSMT-66"/>
     <use xlink:href="#TimesNewRomanPSMT-63" x="33.300781"/>
     <use xlink:href="#TimesNewRomanPSMT-6d" x="77.685547"/>
     <use xlink:href="#TimesNewRomanPSMT-70" x="155.46875"/>
     <use xlink:href="#TimesNewRomanPSMT-3a" x="205.46875"/>
     <use xlink:href="#TimesNewRomanPSMT-31" x="233.251953"/>
     <use xlink:href="#TimesNewRomanPSMT-32" x="283.251953"/>
    </g>
    <!--  -->
    <g transform="translate(352.880477 191.452119) scale(0.1 -0.1)"/>
   </g>
   <g id="text_42">
    <!-- 0.4% -->
    <g transform="translate(289.410871 181.995432) scale(0.1 -0.1)">
     <use xlink:href="#TimesNewRomanPSMT-30"/>
     <use xlink:href="#TimesNewRomanPSMT-2e" x="50"/>
     <use xlink:href="#TimesNewRomanPSMT-34" x="75"/>
     <use xlink:href="#TimesNewRomanPSMT-25" x="125"/>
    </g>
   </g>
   <g id="text_43">
    <!-- uitofp:8 -->
    <g transform="translate(353.061067 178.330827) scale(0.1 -0.1)">
     <use xlink:href="#TimesNewRomanPSMT-75"/>
     <use xlink:href="#TimesNewRomanPSMT-69" x="50"/>
     <use xlink:href="#TimesNewRomanPSMT-74" x="77.783203"/>
     <use xlink:href="#TimesNewRomanPSMT-6f" x="105.566406"/>
     <use xlink:href="#TimesNewRomanPSMT-66" x="155.566406"/>
     <use xlink:href="#TimesNewRomanPSMT-70" x="188.867188"/>
     <use xlink:href="#TimesNewRomanPSMT-3a" x="238.867188"/>
     <use xlink:href="#TimesNewRomanPSMT-38" x="266.650391"/>
    </g>
    <!--  -->
    <g transform="translate(353.061067 188.802389) scale(0.1 -0.1)"/>
   </g>
   <g id="text_44">
    <!-- 0.3% -->
    <g transform="translate(289.509375 180.550124) scale(0.1 -0.1)">
     <use xlink:href="#TimesNewRomanPSMT-30"/>
     <use xlink:href="#TimesNewRomanPSMT-2e" x="50"/>
     <use xlink:href="#TimesNewRomanPSMT-33" x="75"/>
     <use xlink:href="#TimesNewRomanPSMT-25" x="125"/>
    </g>
   </g>
   <g id="text_45">
    <!-- select:8 -->
    <g transform="translate(353.162238 176.208519) scale(0.1 -0.1)">
     <use xlink:href="#TimesNewRomanPSMT-73"/>
     <use xlink:href="#TimesNewRomanPSMT-65" x="38.916016"/>
     <use xlink:href="#TimesNewRomanPSMT-6c" x="83.300781"/>
     <use xlink:href="#TimesNewRomanPSMT-65" x="111.083984"/>
     <use xlink:href="#TimesNewRomanPSMT-63" x="155.46875"/>
     <use xlink:href="#TimesNewRomanPSMT-74" x="199.853516"/>
     <use xlink:href="#TimesNewRomanPSMT-3a" x="227.636719"/>
     <use xlink:href="#TimesNewRomanPSMT-38" x="255.419922"/>
    </g>
    <!--  -->
    <g transform="translate(353.162238 186.680082) scale(0.1 -0.1)"/>
   </g>
   <g id="text_46">
    <!-- 0.3% -->
    <g transform="translate(289.564559 179.392502) scale(0.1 -0.1)">
     <use xlink:href="#TimesNewRomanPSMT-30"/>
     <use xlink:href="#TimesNewRomanPSMT-2e" x="50"/>
     <use xlink:href="#TimesNewRomanPSMT-33" x="75"/>
     <use xlink:href="#TimesNewRomanPSMT-25" x="125"/>
    </g>
   </g>
   <g id="text_47">
    <!-- fptrunc:4 -->
    <g transform="translate(353.212834 174.615774) scale(0.1 -0.1)">
     <use xlink:href="#TimesNewRomanPSMT-66"/>
     <use xlink:href="#TimesNewRomanPSMT-70" x="33.300781"/>
     <use xlink:href="#TimesNewRomanPSMT-74" x="83.300781"/>
     <use xlink:href="#TimesNewRomanPSMT-72" x="111.083984"/>
     <use xlink:href="#TimesNewRomanPSMT-75" x="144.384766"/>
     <use xlink:href="#TimesNewRomanPSMT-6e" x="194.384766"/>
     <use xlink:href="#TimesNewRomanPSMT-63" x="244.384766"/>
     <use xlink:href="#TimesNewRomanPSMT-3a" x="288.769531"/>
     <use xlink:href="#TimesNewRomanPSMT-34" x="316.552734"/>
    </g>
    <!--  -->
    <g transform="translate(353.212834 185.087337) scale(0.1 -0.1)"/>
   </g>
   <g id="text_48">
    <!-- 0.1% -->
    <g transform="translate(289.592157 178.523732) scale(0.1 -0.1)">
     <use xlink:href="#TimesNewRomanPSMT-30"/>
     <use xlink:href="#TimesNewRomanPSMT-2e" x="50"/>
     <use xlink:href="#TimesNewRomanPSMT-31" x="75"/>
     <use xlink:href="#TimesNewRomanPSMT-25" x="125"/>
    </g>
   </g>
   <g id="text_49">
    <!-- xor:4 -->
    <g transform="translate(353.234521 173.553626) scale(0.1 -0.1)">
     <use xlink:href="#TimesNewRomanPSMT-78"/>
     <use xlink:href="#TimesNewRomanPSMT-6f" x="50"/>
     <use xlink:href="#TimesNewRomanPSMT-72" x="100"/>
     <use xlink:href="#TimesNewRomanPSMT-3a" x="133.300781"/>
     <use xlink:href="#TimesNewRomanPSMT-34" x="161.083984"/>
    </g>
    <!--  -->
    <g transform="translate(353.234521 184.025188) scale(0.1 -0.1)"/>
   </g>
   <g id="text_50">
    <!-- 0.1% -->
    <g transform="translate(289.603986 177.944378) scale(0.1 -0.1)">
     <use xlink:href="#TimesNewRomanPSMT-30"/>
     <use xlink:href="#TimesNewRomanPSMT-2e" x="50"/>
     <use xlink:href="#TimesNewRomanPSMT-31" x="75"/>
     <use xlink:href="#TimesNewRomanPSMT-25" x="125"/>
    </g>
   </g>
   <g id="text_51">
    <!-- fdiv:3 -->
    <g transform="translate(353.24559 172.624118) scale(0.1 -0.1)">
     <use xlink:href="#TimesNewRomanPSMT-66"/>
     <use xlink:href="#TimesNewRomanPSMT-64" x="33.300781"/>
     <use xlink:href="#TimesNewRomanPSMT-69" x="83.300781"/>
     <use xlink:href="#TimesNewRomanPSMT-76" x="111.083984"/>
     <use xlink:href="#TimesNewRomanPSMT-3a" x="161.083984"/>
     <use xlink:href="#TimesNewRomanPSMT-33" x="188.867188"/>
    </g>
    <!--  -->
    <g transform="translate(353.24559 183.09568) scale(0.1 -0.1)"/>
   </g>
   <g id="text_52">
    <!-- 0.1% -->
    <g transform="translate(289.610024 177.437374) scale(0.1 -0.1)">
     <use xlink:href="#TimesNewRomanPSMT-30"/>
     <use xlink:href="#TimesNewRomanPSMT-2e" x="50"/>
     <use xlink:href="#TimesNewRomanPSMT-31" x="75"/>
     <use xlink:href="#TimesNewRomanPSMT-25" x="125"/>
    </g>
   </g>
   <g id="text_53">
    <!-- sitofp:1 -->
    <g transform="translate(353.248602 172.09294) scale(0.1 -0.1)">
     <use xlink:href="#TimesNewRomanPSMT-73"/>
     <use xlink:href="#TimesNewRomanPSMT-69" x="38.916016"/>
     <use xlink:href="#TimesNewRomanPSMT-74" x="66.699219"/>
     <use xlink:href="#TimesNewRomanPSMT-6f" x="94.482422"/>
     <use xlink:href="#TimesNewRomanPSMT-66" x="144.482422"/>
     <use xlink:href="#TimesNewRomanPSMT-70" x="177.783203"/>
     <use xlink:href="#TimesNewRomanPSMT-3a" x="227.783203"/>
     <use xlink:href="#TimesNewRomanPSMT-31" x="255.566406"/>
    </g>
    <!--  -->
    <g transform="translate(353.248602 182.564502) scale(0.1 -0.1)"/>
   </g>
   <g id="text_54">
    <!-- 0.0% -->
    <g transform="translate(289.611667 177.14764) scale(0.1 -0.1)">
     <use xlink:href="#TimesNewRomanPSMT-30"/>
     <use xlink:href="#TimesNewRomanPSMT-2e" x="50"/>
     <use xlink:href="#TimesNewRomanPSMT-30" x="75"/>
     <use xlink:href="#TimesNewRomanPSMT-25" x="125"/>
    </g>
   </g>
   <g id="text_55">
    <!-- fneg:1 -->
    <g transform="translate(353.249205 171.813285) scale(0.1 -0.1)">
     <use xlink:href="#TimesNewRomanPSMT-66"/>
     <use xlink:href="#TimesNewRomanPSMT-6e" x="33.300781"/>
     <use xlink:href="#TimesNewRomanPSMT-65" x="83.300781"/>
     <use xlink:href="#TimesNewRomanPSMT-67" x="127.685547"/>
     <use xlink:href="#TimesNewRomanPSMT-3a" x="177.685547"/>
     <use xlink:href="#TimesNewRomanPSMT-31" x="205.46875"/>
    </g>
    <!--  -->
    <g transform="translate(353.249205 182.303597) scale(0.1 -0.1)"/>
   </g>
   <g id="text_56">
    <!-- 0.0% -->
    <g transform="translate(289.611995 177.002772) scale(0.1 -0.1)">
     <use xlink:href="#TimesNewRomanPSMT-30"/>
     <use xlink:href="#TimesNewRomanPSMT-2e" x="50"/>
     <use xlink:href="#TimesNewRomanPSMT-30" x="75"/>
     <use xlink:href="#TimesNewRomanPSMT-25" x="125"/>
    </g>
   </g>
  </g>
  <g id="text_57">
   <!-- Wide&amp;Deep OpNum Distribution -->
   <g transform="translate(148.985625 15.2445) scale(0.12 -0.12)">
    <defs>
     <path id="TimesNewRomanPSMT-57" d="M 5991 4238 
L 5991 4122 
Q 5825 4122 5722 4062 
Q 5619 4003 5525 3841 
Q 5463 3731 5328 3319 
L 4147 -97 
L 4022 -97 
L 3056 2613 
L 2097 -97 
L 1984 -97 
L 725 3422 
Q 584 3816 547 3888 
Q 484 4006 376 4064 
Q 269 4122 84 4122 
L 84 4238 
L 1653 4238 
L 1653 4122 
L 1578 4122 
Q 1413 4122 1325 4047 
Q 1238 3972 1238 3866 
Q 1238 3756 1375 3363 
L 2209 984 
L 2913 3006 
L 2788 3363 
L 2688 3647 
Q 2622 3803 2541 3922 
Q 2500 3981 2441 4022 
Q 2363 4078 2284 4103 
Q 2225 4122 2097 4122 
L 2097 4238 
L 3747 4238 
L 3747 4122 
L 3634 4122 
Q 3459 4122 3378 4047 
Q 3297 3972 3297 3844 
Q 3297 3684 3438 3288 
L 4250 984 
L 5056 3319 
Q 5194 3706 5194 3856 
Q 5194 3928 5148 3990 
Q 5103 4053 5034 4078 
Q 4916 4122 4725 4122 
L 4725 4238 
L 5991 4238 
z
" transform="scale(0.015625)"/>
     <path id="TimesNewRomanPSMT-26" d="M 3266 2728 
L 4578 2728 
L 4578 2613 
Q 4306 2591 4176 2492 
Q 4047 2394 3772 1897 
Q 3497 1400 3153 969 
Q 3431 644 3650 514 
Q 3869 384 4091 384 
Q 4306 384 4456 501 
Q 4606 619 4669 847 
L 4784 763 
Q 4669 322 4412 112 
Q 4156 -97 3816 -97 
Q 3559 -97 3295 42 
Q 3031 181 2719 513 
Q 2331 169 2020 36 
Q 1709 -97 1356 -97 
Q 841 -97 537 178 
Q 234 453 234 834 
Q 234 1213 506 1589 
Q 778 1966 1528 2369 
Q 1381 2694 1328 2901 
Q 1275 3109 1275 3300 
Q 1275 3834 1669 4116 
Q 1975 4334 2366 4334 
Q 2738 4334 2972 4114 
Q 3206 3894 3206 3572 
Q 3206 3241 2979 2991 
Q 2753 2741 2178 2444 
Q 2575 1738 3006 1150 
Q 3556 1806 3556 2256 
Q 3556 2400 3463 2513 
Q 3394 2597 3266 2613 
L 3266 2728 
z
M 2072 2647 
Q 2459 2831 2651 3065 
Q 2844 3300 2844 3588 
Q 2844 3813 2705 3959 
Q 2566 4106 2359 4106 
Q 2088 4106 1948 3917 
Q 1809 3728 1809 3547 
Q 1809 3394 1862 3205 
Q 1916 3016 2072 2647 
z
M 2556 694 
Q 2144 1256 1984 1515 
Q 1825 1775 1634 2159 
Q 1259 1944 1070 1684 
Q 881 1425 881 1122 
Q 881 788 1097 534 
Q 1313 281 1678 281 
Q 1875 281 2058 359 
Q 2241 438 2556 694 
z
" transform="scale(0.015625)"/>
     <path id="TimesNewRomanPSMT-44" d="M 109 0 
L 109 116 
L 269 116 
Q 538 116 650 288 
Q 719 391 719 750 
L 719 3488 
Q 719 3884 631 3984 
Q 509 4122 269 4122 
L 109 4122 
L 109 4238 
L 1834 4238 
Q 2784 4238 3279 4022 
Q 3775 3806 4076 3303 
Q 4378 2800 4378 2141 
Q 4378 1256 3841 663 
Q 3238 0 2003 0 
L 109 0 
z
M 1319 306 
Q 1716 219 1984 219 
Q 2709 219 3187 728 
Q 3666 1238 3666 2109 
Q 3666 2988 3187 3494 
Q 2709 4000 1959 4000 
Q 1678 4000 1319 3909 
L 1319 306 
z
" transform="scale(0.015625)"/>
     <path id="TimesNewRomanPSMT-20" transform="scale(0.015625)"/>
     <path id="TimesNewRomanPSMT-4f" d="M 2341 4334 
Q 3166 4334 3770 3707 
Q 4375 3081 4375 2144 
Q 4375 1178 3765 540 
Q 3156 -97 2291 -97 
Q 1416 -97 820 525 
Q 225 1147 225 2134 
Q 225 3144 913 3781 
Q 1509 4334 2341 4334 
z
M 2281 4106 
Q 1713 4106 1369 3684 
Q 941 3159 941 2147 
Q 941 1109 1384 550 
Q 1725 125 2284 125 
Q 2881 125 3270 590 
Q 3659 1056 3659 2059 
Q 3659 3147 3231 3681 
Q 2888 4106 2281 4106 
z
" transform="scale(0.015625)"/>
     <path id="TimesNewRomanPSMT-4e" d="M -84 4238 
L 1066 4238 
L 3656 1059 
L 3656 3503 
Q 3656 3894 3569 3991 
Q 3453 4122 3203 4122 
L 3056 4122 
L 3056 4238 
L 4531 4238 
L 4531 4122 
L 4381 4122 
Q 4113 4122 4000 3959 
Q 3931 3859 3931 3503 
L 3931 -69 
L 3819 -69 
L 1025 3344 
L 1025 734 
Q 1025 344 1109 247 
Q 1228 116 1475 116 
L 1625 116 
L 1625 0 
L 150 0 
L 150 116 
L 297 116 
Q 569 116 681 278 
Q 750 378 750 734 
L 750 3681 
Q 566 3897 470 3965 
Q 375 4034 191 4094 
Q 100 4122 -84 4122 
L -84 4238 
z
" transform="scale(0.015625)"/>
    </defs>
    <use xlink:href="#TimesNewRomanPSMT-57"/>
    <use xlink:href="#TimesNewRomanPSMT-69" x="90.384766"/>
    <use xlink:href="#TimesNewRomanPSMT-64" x="118.167969"/>
    <use xlink:href="#TimesNewRomanPSMT-65" x="168.167969"/>
    <use xlink:href="#TimesNewRomanPSMT-26" x="212.552734"/>
    <use xlink:href="#TimesNewRomanPSMT-44" x="290.335938"/>
    <use xlink:href="#TimesNewRomanPSMT-65" x="362.552734"/>
    <use xlink:href="#TimesNewRomanPSMT-65" x="406.9375"/>
    <use xlink:href="#TimesNewRomanPSMT-70" x="451.322266"/>
    <use xlink:href="#TimesNewRomanPSMT-20" x="501.322266"/>
    <use xlink:href="#TimesNewRomanPSMT-4f" x="526.322266"/>
    <use xlink:href="#TimesNewRomanPSMT-70" x="598.539062"/>
    <use xlink:href="#TimesNewRomanPSMT-4e" x="648.539062"/>
    <use xlink:href="#TimesNewRomanPSMT-75" x="720.755859"/>
    <use xlink:href="#TimesNewRomanPSMT-6d" x="770.755859"/>
    <use xlink:href="#TimesNewRomanPSMT-20" x="848.539062"/>
    <use xlink:href="#TimesNewRomanPSMT-44" x="873.539062"/>
    <use xlink:href="#TimesNewRomanPSMT-69" x="945.755859"/>
    <use xlink:href="#TimesNewRomanPSMT-73" x="973.539062"/>
    <use xlink:href="#TimesNewRomanPSMT-74" x="1012.455078"/>
    <use xlink:href="#TimesNewRomanPSMT-72" x="1040.238281"/>
    <use xlink:href="#TimesNewRomanPSMT-69" x="1073.539062"/>
    <use xlink:href="#TimesNewRomanPSMT-62" x="1101.322266"/>
    <use xlink:href="#TimesNewRomanPSMT-75" x="1151.322266"/>
    <use xlink:href="#TimesNewRomanPSMT-74" x="1201.322266"/>
    <use xlink:href="#TimesNewRomanPSMT-69" x="1229.105469"/>
    <use xlink:href="#TimesNewRomanPSMT-6f" x="1256.888672"/>
    <use xlink:href="#TimesNewRomanPSMT-6e" x="1306.888672"/>
   </g>
  </g>
 </g>
</svg>
