<?xml version="1.0" encoding="utf-8" standalone="no"?>
<!DOCTYPE svg PUBLIC "-//W3C//DTD SVG 1.1//EN"
  "http://www.w3.org/Graphics/SVG/1.1/DTD/svg11.dtd">
<svg xmlns:xlink="http://www.w3.org/1999/xlink" width="460.8pt" height="345.6pt" viewBox="0 0 460.8 345.6" xmlns="http://www.w3.org/2000/svg" version="1.1">
 <metadata>
  <rdf:RDF xmlns:dc="http://purl.org/dc/elements/1.1/" xmlns:cc="http://creativecommons.org/ns#" xmlns:rdf="http://www.w3.org/1999/02/22-rdf-syntax-ns#">
   <cc:Work>
    <dc:type rdf:resource="http://purl.org/dc/dcmitype/StillImage"/>
    <dc:date>2024-04-03T09:18:26.476881</dc:date>
    <dc:format>image/svg+xml</dc:format>
    <dc:creator>
     <cc:Agent>
      <dc:title>Matplotlib v3.8.3, https://matplotlib.org/</dc:title>
     </cc:Agent>
    </dc:creator>
   </cc:Work>
  </rdf:RDF>
 </metadata>
 <defs>
  <style type="text/css">*{stroke-linejoin: round; stroke-linecap: butt}</style>
 </defs>
 <g id="figure_1">
  <g id="patch_1">
   <path d="M 0 345.6 
L 460.8 345.6 
L 460.8 0 
L 0 0 
z
" style="fill: #ffffff"/>
  </g>
  <g id="axes_1">
   <g id="patch_2">
    <path d="M 342.6048 174.528 
C 342.6048 174.524673 342.6048 174.521347 342.6048 174.51802 
C 342.604799 174.514693 342.604799 174.511366 342.604798 174.50804 
L 236.16 174.528 
z
" style="fill: #ffffff"/>
   </g>
   <g id="patch_3">
    <path d="M 342.604798 174.50804 
C 342.600117 149.546779 333.815475 125.365329 317.797593 106.221347 
C 301.779712 87.077366 279.527302 74.164475 254.958374 69.756264 
L 236.16 174.528 
z
" style="fill: #cfd7b0"/>
   </g>
   <g id="patch_4">
    <path d="M 254.958374 69.756264 
C 233.176168 65.848053 210.708027 68.828279 190.697902 78.279919 
C 170.687778 87.731559 154.114668 103.192192 143.297638 122.49842 
L 236.16 174.528 
z
" style="fill: #7f694c"/>
   </g>
   <g id="patch_5">
    <path d="M 143.297638 122.49842 
C 133.550198 139.895645 128.885061 159.686881 129.836393 179.605991 
C 130.787725 199.525102 137.317776 218.781658 148.678843 235.170745 
L 236.16 174.528 
z
" style="fill: #e8c2db"/>
   </g>
   <g id="patch_6">
    <path d="M 148.678843 235.170745 
C 153.420542 242.010959 158.948182 248.271493 165.148388 253.823942 
C 171.348594 259.37639 178.178683 264.182529 185.498568 268.143782 
L 236.16 174.528 
z
" style="fill: #52557b"/>
   </g>
   <g id="patch_7">
    <path d="M 185.498568 268.143782 
C 191.498103 271.390511 197.795879 274.052999 204.30495 276.094487 
C 210.81402 278.135975 217.504293 279.547026 224.283405 280.308158 
L 236.16 174.528 
z
" style="fill: #86605f"/>
   </g>
   <g id="patch_8">
    <path d="M 224.283405 280.308158 
C 230.022401 280.952511 235.80433 281.128751 241.571917 280.835133 
C 247.339504 280.541515 253.073643 279.779011 258.717533 278.555175 
L 236.16 174.528 
z
" style="fill: #bbbcb9"/>
   </g>
   <g id="patch_9">
    <path d="M 258.717533 278.555175 
C 263.765577 277.460544 268.727253 275.999919 273.563223 274.184883 
C 278.399192 272.369847 283.096639 270.205209 287.618316 267.708133 
L 236.16 174.528 
z
" style="fill: #a38fa3"/>
   </g>
   <g id="patch_10">
    <path d="M 287.618316 267.708133 
C 291.842585 265.375299 295.903332 262.757906 299.772448 259.874071 
C 303.641564 256.990237 307.3101 253.846631 310.752662 250.465015 
L 236.16 174.528 
z
" style="fill: #554e4e"/>
   </g>
   <g id="patch_11">
    <path d="M 310.752662 250.465015 
C 313.674964 247.594448 316.429128 244.557583 319.001409 241.369577 
C 321.573689 238.181571 323.959799 234.847737 326.14783 231.384714 
L 236.16 174.528 
z
" style="fill: #5b5e66"/>
   </g>
   <g id="patch_12">
    <path d="M 326.14783 231.384714 
C 327.100324 229.877189 328.014786 228.345968 328.890349 226.792499 
C 329.765912 225.239029 330.6023 223.663804 331.398721 222.068313 
L 236.16 174.528 
z
" style="fill: #f18772"/>
   </g>
   <g id="patch_13">
    <path d="M 331.398721 222.068313 
C 332.189198 220.48473 332.940056 218.881679 333.650594 217.260653 
C 334.361131 215.639627 335.031128 214.001132 335.659958 212.346695 
L 236.16 174.528 
z
" style="fill: #b0886a"/>
   </g>
   <g id="patch_14">
    <path d="M 335.659958 212.346695 
C 336.288789 210.692259 336.876258 209.022396 337.421818 207.338664 
C 337.967378 205.654932 338.470858 203.957855 338.931789 202.249017 
L 236.16 174.528 
z
" style="fill: #a54b45"/>
   </g>
   <g id="patch_15">
    <path d="M 338.931789 202.249017 
C 339.236758 201.118389 339.523048 199.982806 339.790542 198.842731 
C 340.058037 197.702657 340.3067 196.558245 340.536429 195.409965 
L 236.16 174.528 
z
" style="fill: #7f8d7b"/>
   </g>
   <g id="patch_16">
    <path d="M 340.536429 195.409965 
C 340.742663 194.379126 340.933614 193.34529 341.10922 192.308794 
C 341.284826 191.272299 341.445067 190.233259 341.589892 189.192017 
L 236.16 174.528 
z
" style="fill: #af7680"/>
   </g>
   <g id="patch_17">
    <path d="M 341.589892 189.192017 
C 341.724174 188.226564 341.84519 187.259311 341.952903 186.290534 
C 342.060616 185.321756 342.155017 184.351545 342.236079 183.380174 
L 236.16 174.528 
z
" style="fill: #f1dadb"/>
   </g>
   <g id="patch_18">
    <path d="M 342.236079 183.380174 
C 342.275918 182.902782 342.312533 182.425127 342.345923 181.947242 
C 342.379313 181.469356 342.409477 180.99125 342.436412 180.512957 
L 236.16 174.528 
z
" style="fill: #e1dba2"/>
   </g>
   <g id="patch_19">
    <path d="M 342.436412 180.512957 
C 342.463347 180.034664 342.487053 179.556194 342.507528 179.077581 
C 342.528003 178.598968 342.545247 178.120222 342.559259 177.641376 
L 236.16 174.528 
z
" style="fill: #fcefdf"/>
   </g>
   <g id="patch_20">
    <path d="M 342.559259 177.641376 
C 342.566265 177.401954 342.572463 177.162509 342.577852 176.923045 
C 342.583241 176.68358 342.587822 176.444099 342.591595 176.204604 
L 236.16 174.528 
z
" style="fill: #c6cee2"/>
   </g>
   <g id="patch_21">
    <path d="M 342.591595 176.204604 
C 342.595368 175.965109 342.598332 175.725602 342.600488 175.486087 
C 342.602644 175.246571 342.603992 175.00705 342.604531 174.767526 
L 236.16 174.528 
z
" style="fill: #d8d1e1"/>
   </g>
   <g id="patch_22">
    <path d="M 342.604531 174.767526 
C 342.604613 174.730932 342.604676 174.694338 342.604721 174.657744 
C 342.604766 174.62115 342.604791 174.584556 342.604798 174.547962 
L 236.16 174.528 
z
" style="fill: #cadabd"/>
   </g>
   <g id="patch_23">
    <path d="M 342.604798 174.547962 
C 342.604799 174.544635 342.604799 174.541308 342.6048 174.537982 
C 342.6048 174.534655 342.6048 174.531328 342.6048 174.528001 
L 236.16 174.528 
z
" style="fill: #7a7579"/>
   </g>
   <g id="matplotlib.axis_1"/>
   <g id="matplotlib.axis_2"/>
   <g id="text_1">
    <!-- 1:1 -->
    <g transform="translate(353.249279 176.919366) scale(0.1 -0.1)">
     <defs>
      <path id="TimesNewRomanPSMT-31" d="M 750 3822 
L 1781 4325 
L 1884 4325 
L 1884 747 
Q 1884 391 1914 303 
Q 1944 216 2037 169 
Q 2131 122 2419 116 
L 2419 0 
L 825 0 
L 825 116 
Q 1125 122 1212 167 
Q 1300 213 1334 289 
Q 1369 366 1369 747 
L 1369 3034 
Q 1369 3497 1338 3628 
Q 1316 3728 1258 3775 
Q 1200 3822 1119 3822 
Q 1003 3822 797 3725 
L 750 3822 
z
" transform="scale(0.015625)"/>
      <path id="TimesNewRomanPSMT-3a" d="M 903 2950 
Q 1047 2950 1148 2848 
Q 1250 2747 1250 2603 
Q 1250 2459 1148 2357 
Q 1047 2256 903 2256 
Q 759 2256 657 2357 
Q 556 2459 556 2603 
Q 556 2747 657 2848 
Q 759 2950 903 2950 
z
M 897 609 
Q 1044 609 1145 506 
Q 1247 403 1247 259 
Q 1247 116 1144 14 
Q 1041 -88 897 -88 
Q 753 -88 651 14 
Q 550 116 550 259 
Q 550 403 651 506 
Q 753 609 897 609 
z
" transform="scale(0.015625)"/>
     </defs>
     <use xlink:href="#TimesNewRomanPSMT-31"/>
     <use xlink:href="#TimesNewRomanPSMT-3a" x="50"/>
     <use xlink:href="#TimesNewRomanPSMT-31" x="77.783203"/>
    </g>
   </g>
   <g id="text_2">
    <!-- 0.0% -->
    <g transform="translate(289.612036 176.924356) scale(0.1 -0.1)">
     <defs>
      <path id="TimesNewRomanPSMT-30" d="M 231 2094 
Q 231 2819 450 3342 
Q 669 3866 1031 4122 
Q 1313 4325 1613 4325 
Q 2100 4325 2488 3828 
Q 2972 3213 2972 2159 
Q 2972 1422 2759 906 
Q 2547 391 2217 158 
Q 1888 -75 1581 -75 
Q 975 -75 572 641 
Q 231 1244 231 2094 
z
M 844 2016 
Q 844 1141 1059 588 
Q 1238 122 1591 122 
Q 1759 122 1940 273 
Q 2122 425 2216 781 
Q 2359 1319 2359 2297 
Q 2359 3022 2209 3506 
Q 2097 3866 1919 4016 
Q 1791 4119 1609 4119 
Q 1397 4119 1231 3928 
Q 1006 3669 925 3112 
Q 844 2556 844 2016 
z
" transform="scale(0.015625)"/>
      <path id="TimesNewRomanPSMT-2e" d="M 800 606 
Q 947 606 1047 504 
Q 1147 403 1147 259 
Q 1147 116 1045 14 
Q 944 -88 800 -88 
Q 656 -88 554 14 
Q 453 116 453 259 
Q 453 406 554 506 
Q 656 606 800 606 
z
" transform="scale(0.015625)"/>
      <path id="TimesNewRomanPSMT-25" d="M 4350 4334 
L 1263 -175 
L 984 -175 
L 4072 4334 
L 4350 4334 
z
M 1138 4334 
Q 1559 4334 1792 3984 
Q 2025 3634 2025 3181 
Q 2025 2638 1762 2341 
Q 1500 2044 1131 2044 
Q 884 2044 678 2180 
Q 472 2316 348 2584 
Q 225 2853 225 3181 
Q 225 3509 350 3786 
Q 475 4063 692 4198 
Q 909 4334 1138 4334 
z
M 1128 4159 
Q 969 4159 845 3971 
Q 722 3784 722 3184 
Q 722 2750 791 2522 
Q 844 2350 956 2256 
Q 1022 2200 1119 2200 
Q 1269 2200 1375 2363 
Q 1531 2603 1531 3166 
Q 1531 3759 1378 4000 
Q 1278 4159 1128 4159 
z
M 4206 2103 
Q 4428 2103 4648 1962 
Q 4869 1822 4989 1553 
Q 5109 1284 5109 963 
Q 5109 409 4843 117 
Q 4578 -175 4216 -175 
Q 3988 -175 3773 -34 
Q 3559 106 3436 367 
Q 3313 628 3313 963 
Q 3313 1291 3436 1562 
Q 3559 1834 3773 1968 
Q 3988 2103 4206 2103 
z
M 4209 1938 
Q 4059 1938 3950 1769 
Q 3809 1550 3809 941 
Q 3809 381 3953 159 
Q 4059 0 4209 0 
Q 4353 0 4466 172 
Q 4616 400 4616 956 
Q 4616 1544 4466 1778 
Q 4363 1938 4209 1938 
z
" transform="scale(0.015625)"/>
     </defs>
     <use xlink:href="#TimesNewRomanPSMT-30"/>
     <use xlink:href="#TimesNewRomanPSMT-2e" x="50"/>
     <use xlink:href="#TimesNewRomanPSMT-30" x="75"/>
     <use xlink:href="#TimesNewRomanPSMT-25" x="125"/>
    </g>
   </g>
   <g id="text_3">
    <!-- phi:7429 -->
    <g transform="translate(325.961353 96.557244) scale(0.1 -0.1)">
     <defs>
      <path id="TimesNewRomanPSMT-70" d="M -6 2578 
L 875 2934 
L 994 2934 
L 994 2266 
Q 1216 2644 1439 2795 
Q 1663 2947 1909 2947 
Q 2341 2947 2628 2609 
Q 2981 2197 2981 1534 
Q 2981 794 2556 309 
Q 2206 -88 1675 -88 
Q 1444 -88 1275 -22 
Q 1150 25 994 166 
L 994 -706 
Q 994 -1000 1030 -1079 
Q 1066 -1159 1155 -1206 
Q 1244 -1253 1478 -1253 
L 1478 -1369 
L -22 -1369 
L -22 -1253 
L 56 -1253 
Q 228 -1256 350 -1188 
Q 409 -1153 442 -1076 
Q 475 -1000 475 -688 
L 475 2019 
Q 475 2297 450 2372 
Q 425 2447 370 2484 
Q 316 2522 222 2522 
Q 147 2522 31 2478 
L -6 2578 
z
M 994 2081 
L 994 1013 
Q 994 666 1022 556 
Q 1066 375 1236 237 
Q 1406 100 1666 100 
Q 1978 100 2172 344 
Q 2425 663 2425 1241 
Q 2425 1897 2138 2250 
Q 1938 2494 1663 2494 
Q 1513 2494 1366 2419 
Q 1253 2363 994 2081 
z
" transform="scale(0.015625)"/>
      <path id="TimesNewRomanPSMT-68" d="M 1041 4444 
L 1041 2350 
Q 1388 2731 1591 2839 
Q 1794 2947 1997 2947 
Q 2241 2947 2416 2812 
Q 2591 2678 2675 2391 
Q 2734 2191 2734 1659 
L 2734 647 
Q 2734 375 2778 275 
Q 2809 200 2884 156 
Q 2959 113 3159 113 
L 3159 0 
L 1753 0 
L 1753 113 
L 1819 113 
Q 2019 113 2097 173 
Q 2175 234 2206 353 
Q 2216 403 2216 647 
L 2216 1659 
Q 2216 2128 2167 2275 
Q 2119 2422 2012 2495 
Q 1906 2569 1756 2569 
Q 1603 2569 1437 2487 
Q 1272 2406 1041 2159 
L 1041 647 
Q 1041 353 1073 281 
Q 1106 209 1195 161 
Q 1284 113 1503 113 
L 1503 0 
L 84 0 
L 84 113 
Q 275 113 384 172 
Q 447 203 484 290 
Q 522 378 522 647 
L 522 3238 
Q 522 3728 498 3840 
Q 475 3953 426 3993 
Q 378 4034 297 4034 
Q 231 4034 84 3984 
L 41 4094 
L 897 4444 
L 1041 4444 
z
" transform="scale(0.015625)"/>
      <path id="TimesNewRomanPSMT-69" d="M 928 4444 
Q 1059 4444 1151 4351 
Q 1244 4259 1244 4128 
Q 1244 3997 1151 3903 
Q 1059 3809 928 3809 
Q 797 3809 703 3903 
Q 609 3997 609 4128 
Q 609 4259 701 4351 
Q 794 4444 928 4444 
z
M 1188 2947 
L 1188 647 
Q 1188 378 1227 289 
Q 1266 200 1342 156 
Q 1419 113 1622 113 
L 1622 0 
L 231 0 
L 231 113 
Q 441 113 512 153 
Q 584 194 626 287 
Q 669 381 669 647 
L 669 1750 
Q 669 2216 641 2353 
Q 619 2453 572 2492 
Q 525 2531 444 2531 
Q 356 2531 231 2484 
L 188 2597 
L 1050 2947 
L 1188 2947 
z
" transform="scale(0.015625)"/>
      <path id="TimesNewRomanPSMT-37" d="M 644 4238 
L 2916 4238 
L 2916 4119 
L 1503 -88 
L 1153 -88 
L 2419 3728 
L 1253 3728 
Q 900 3728 750 3644 
Q 488 3500 328 3200 
L 238 3234 
L 644 4238 
z
" transform="scale(0.015625)"/>
      <path id="TimesNewRomanPSMT-34" d="M 2978 1563 
L 2978 1119 
L 2409 1119 
L 2409 0 
L 1894 0 
L 1894 1119 
L 100 1119 
L 100 1519 
L 2066 4325 
L 2409 4325 
L 2409 1563 
L 2978 1563 
z
M 1894 1563 
L 1894 3666 
L 406 1563 
L 1894 1563 
z
" transform="scale(0.015625)"/>
      <path id="TimesNewRomanPSMT-32" d="M 2934 816 
L 2638 0 
L 138 0 
L 138 116 
Q 1241 1122 1691 1759 
Q 2141 2397 2141 2925 
Q 2141 3328 1894 3587 
Q 1647 3847 1303 3847 
Q 991 3847 742 3664 
Q 494 3481 375 3128 
L 259 3128 
Q 338 3706 661 4015 
Q 984 4325 1469 4325 
Q 1984 4325 2329 3994 
Q 2675 3663 2675 3213 
Q 2675 2891 2525 2569 
Q 2294 2063 1775 1497 
Q 997 647 803 472 
L 1909 472 
Q 2247 472 2383 497 
Q 2519 522 2628 598 
Q 2738 675 2819 816 
L 2934 816 
z
" transform="scale(0.015625)"/>
      <path id="TimesNewRomanPSMT-39" d="M 338 -88 
L 338 28 
Q 744 34 1094 217 
Q 1444 400 1770 856 
Q 2097 1313 2225 1859 
Q 1734 1544 1338 1544 
Q 891 1544 572 1889 
Q 253 2234 253 2806 
Q 253 3363 572 3797 
Q 956 4325 1575 4325 
Q 2097 4325 2469 3894 
Q 2925 3359 2925 2575 
Q 2925 1869 2578 1258 
Q 2231 647 1613 244 
Q 1109 -88 516 -88 
L 338 -88 
z
M 2275 2091 
Q 2331 2497 2331 2741 
Q 2331 3044 2228 3395 
Q 2125 3747 1936 3934 
Q 1747 4122 1506 4122 
Q 1228 4122 1018 3872 
Q 809 3622 809 3128 
Q 809 2469 1088 2097 
Q 1291 1828 1588 1828 
Q 1731 1828 1928 1897 
Q 2125 1966 2275 2091 
z
" transform="scale(0.015625)"/>
     </defs>
     <use xlink:href="#TimesNewRomanPSMT-70"/>
     <use xlink:href="#TimesNewRomanPSMT-68" x="50"/>
     <use xlink:href="#TimesNewRomanPSMT-69" x="100"/>
     <use xlink:href="#TimesNewRomanPSMT-3a" x="127.783203"/>
     <use xlink:href="#TimesNewRomanPSMT-37" x="155.566406"/>
     <use xlink:href="#TimesNewRomanPSMT-34" x="205.566406"/>
     <use xlink:href="#TimesNewRomanPSMT-32" x="255.566406"/>
     <use xlink:href="#TimesNewRomanPSMT-39" x="305.566406"/>
    </g>
    <!--  -->
    <g transform="translate(325.961353 107.028807) scale(0.1 -0.1)"/>
   </g>
   <g id="text_4">
    <!-- 22.2% -->
    <g transform="translate(272.227712 135.946352) scale(0.1 -0.1)">
     <use xlink:href="#TimesNewRomanPSMT-32"/>
     <use xlink:href="#TimesNewRomanPSMT-32" x="50"/>
     <use xlink:href="#TimesNewRomanPSMT-2e" x="100"/>
     <use xlink:href="#TimesNewRomanPSMT-32" x="125"/>
     <use xlink:href="#TimesNewRomanPSMT-25" x="175"/>
    </g>
   </g>
   <g id="text_5">
    <!-- add:6600 -->
    <g transform="translate(148.934505 65.821673) scale(0.1 -0.1)">
     <defs>
      <path id="TimesNewRomanPSMT-61" d="M 1822 413 
Q 1381 72 1269 19 
Q 1100 -59 909 -59 
Q 613 -59 420 144 
Q 228 347 228 678 
Q 228 888 322 1041 
Q 450 1253 767 1440 
Q 1084 1628 1822 1897 
L 1822 2009 
Q 1822 2438 1686 2597 
Q 1550 2756 1291 2756 
Q 1094 2756 978 2650 
Q 859 2544 859 2406 
L 866 2225 
Q 866 2081 792 2003 
Q 719 1925 600 1925 
Q 484 1925 411 2006 
Q 338 2088 338 2228 
Q 338 2497 613 2722 
Q 888 2947 1384 2947 
Q 1766 2947 2009 2819 
Q 2194 2722 2281 2516 
Q 2338 2381 2338 1966 
L 2338 994 
Q 2338 584 2353 492 
Q 2369 400 2405 369 
Q 2441 338 2488 338 
Q 2538 338 2575 359 
Q 2641 400 2828 588 
L 2828 413 
Q 2478 -56 2159 -56 
Q 2006 -56 1915 50 
Q 1825 156 1822 413 
z
M 1822 616 
L 1822 1706 
Q 1350 1519 1213 1441 
Q 966 1303 859 1153 
Q 753 1003 753 825 
Q 753 600 887 451 
Q 1022 303 1197 303 
Q 1434 303 1822 616 
z
" transform="scale(0.015625)"/>
      <path id="TimesNewRomanPSMT-64" d="M 2222 322 
Q 2013 103 1813 7 
Q 1613 -88 1381 -88 
Q 913 -88 563 304 
Q 213 697 213 1313 
Q 213 1928 600 2439 
Q 988 2950 1597 2950 
Q 1975 2950 2222 2709 
L 2222 3238 
Q 2222 3728 2198 3840 
Q 2175 3953 2125 3993 
Q 2075 4034 2000 4034 
Q 1919 4034 1784 3984 
L 1744 4094 
L 2597 4444 
L 2738 4444 
L 2738 1134 
Q 2738 631 2761 520 
Q 2784 409 2836 365 
Q 2888 322 2956 322 
Q 3041 322 3181 375 
L 3216 266 
L 2366 -88 
L 2222 -88 
L 2222 322 
z
M 2222 541 
L 2222 2016 
Q 2203 2228 2109 2403 
Q 2016 2578 1861 2667 
Q 1706 2756 1559 2756 
Q 1284 2756 1069 2509 
Q 784 2184 784 1559 
Q 784 928 1059 592 
Q 1334 256 1672 256 
Q 1956 256 2222 541 
z
" transform="scale(0.015625)"/>
      <path id="TimesNewRomanPSMT-36" d="M 2869 4325 
L 2869 4209 
Q 2456 4169 2195 4045 
Q 1934 3922 1679 3669 
Q 1425 3416 1258 3105 
Q 1091 2794 978 2366 
Q 1428 2675 1881 2675 
Q 2316 2675 2634 2325 
Q 2953 1975 2953 1425 
Q 2953 894 2631 456 
Q 2244 -75 1606 -75 
Q 1172 -75 869 213 
Q 275 772 275 1663 
Q 275 2231 503 2743 
Q 731 3256 1154 3653 
Q 1578 4050 1965 4187 
Q 2353 4325 2688 4325 
L 2869 4325 
z
M 925 2138 
Q 869 1716 869 1456 
Q 869 1156 980 804 
Q 1091 453 1309 247 
Q 1469 100 1697 100 
Q 1969 100 2183 356 
Q 2397 613 2397 1088 
Q 2397 1622 2184 2012 
Q 1972 2403 1581 2403 
Q 1463 2403 1327 2353 
Q 1191 2303 925 2138 
z
" transform="scale(0.015625)"/>
     </defs>
     <use xlink:href="#TimesNewRomanPSMT-61"/>
     <use xlink:href="#TimesNewRomanPSMT-64" x="44.384766"/>
     <use xlink:href="#TimesNewRomanPSMT-64" x="94.384766"/>
     <use xlink:href="#TimesNewRomanPSMT-3a" x="144.384766"/>
     <use xlink:href="#TimesNewRomanPSMT-36" x="172.167969"/>
     <use xlink:href="#TimesNewRomanPSMT-36" x="222.167969"/>
     <use xlink:href="#TimesNewRomanPSMT-30" x="272.167969"/>
     <use xlink:href="#TimesNewRomanPSMT-30" x="322.167969"/>
    </g>
    <!--  -->
    <g transform="translate(186.151692 76.293236) scale(0.1 -0.1)"/>
   </g>
   <g id="text_6">
    <!-- 19.7% -->
    <g transform="translate(195.967898 119.181495) scale(0.1 -0.1)">
     <use xlink:href="#TimesNewRomanPSMT-31"/>
     <use xlink:href="#TimesNewRomanPSMT-39" x="50"/>
     <use xlink:href="#TimesNewRomanPSMT-2e" x="100"/>
     <use xlink:href="#TimesNewRomanPSMT-37" x="125"/>
     <use xlink:href="#TimesNewRomanPSMT-25" x="175"/>
    </g>
   </g>
   <g id="text_7">
    <!-- insertvalue:5956 -->
    <g transform="translate(52.55247 177.280353) scale(0.1 -0.1)">
     <defs>
      <path id="TimesNewRomanPSMT-6e" d="M 1034 2341 
Q 1538 2947 1994 2947 
Q 2228 2947 2397 2830 
Q 2566 2713 2666 2444 
Q 2734 2256 2734 1869 
L 2734 647 
Q 2734 375 2778 278 
Q 2813 200 2889 156 
Q 2966 113 3172 113 
L 3172 0 
L 1756 0 
L 1756 113 
L 1816 113 
Q 2016 113 2095 173 
Q 2175 234 2206 353 
Q 2219 400 2219 647 
L 2219 1819 
Q 2219 2209 2117 2386 
Q 2016 2563 1775 2563 
Q 1403 2563 1034 2156 
L 1034 647 
Q 1034 356 1069 288 
Q 1113 197 1189 155 
Q 1266 113 1500 113 
L 1500 0 
L 84 0 
L 84 113 
L 147 113 
Q 366 113 442 223 
Q 519 334 519 647 
L 519 1709 
Q 519 2225 495 2337 
Q 472 2450 423 2490 
Q 375 2531 294 2531 
Q 206 2531 84 2484 
L 38 2597 
L 900 2947 
L 1034 2947 
L 1034 2341 
z
" transform="scale(0.015625)"/>
      <path id="TimesNewRomanPSMT-73" d="M 2050 2947 
L 2050 1972 
L 1947 1972 
Q 1828 2431 1642 2597 
Q 1456 2763 1169 2763 
Q 950 2763 815 2647 
Q 681 2531 681 2391 
Q 681 2216 781 2091 
Q 878 1963 1175 1819 
L 1631 1597 
Q 2266 1288 2266 781 
Q 2266 391 1970 151 
Q 1675 -88 1309 -88 
Q 1047 -88 709 6 
Q 606 38 541 38 
Q 469 38 428 -44 
L 325 -44 
L 325 978 
L 428 978 
Q 516 541 762 319 
Q 1009 97 1316 97 
Q 1531 97 1667 223 
Q 1803 350 1803 528 
Q 1803 744 1651 891 
Q 1500 1038 1047 1263 
Q 594 1488 453 1669 
Q 313 1847 313 2119 
Q 313 2472 555 2709 
Q 797 2947 1181 2947 
Q 1350 2947 1591 2875 
Q 1750 2828 1803 2828 
Q 1853 2828 1881 2850 
Q 1909 2872 1947 2947 
L 2050 2947 
z
" transform="scale(0.015625)"/>
      <path id="TimesNewRomanPSMT-65" d="M 681 1784 
Q 678 1147 991 784 
Q 1303 422 1725 422 
Q 2006 422 2214 576 
Q 2422 731 2563 1106 
L 2659 1044 
Q 2594 616 2278 264 
Q 1963 -88 1488 -88 
Q 972 -88 605 314 
Q 238 716 238 1394 
Q 238 2128 614 2539 
Q 991 2950 1559 2950 
Q 2041 2950 2350 2633 
Q 2659 2316 2659 1784 
L 681 1784 
z
M 681 1966 
L 2006 1966 
Q 1991 2241 1941 2353 
Q 1863 2528 1708 2628 
Q 1553 2728 1384 2728 
Q 1125 2728 920 2526 
Q 716 2325 681 1966 
z
" transform="scale(0.015625)"/>
      <path id="TimesNewRomanPSMT-72" d="M 1038 2947 
L 1038 2303 
Q 1397 2947 1775 2947 
Q 1947 2947 2059 2842 
Q 2172 2738 2172 2600 
Q 2172 2478 2090 2393 
Q 2009 2309 1897 2309 
Q 1788 2309 1652 2417 
Q 1516 2525 1450 2525 
Q 1394 2525 1328 2463 
Q 1188 2334 1038 2041 
L 1038 669 
Q 1038 431 1097 309 
Q 1138 225 1241 169 
Q 1344 113 1538 113 
L 1538 0 
L 72 0 
L 72 113 
Q 291 113 397 181 
Q 475 231 506 341 
Q 522 394 522 644 
L 522 1753 
Q 522 2253 501 2348 
Q 481 2444 426 2487 
Q 372 2531 291 2531 
Q 194 2531 72 2484 
L 41 2597 
L 906 2947 
L 1038 2947 
z
" transform="scale(0.015625)"/>
      <path id="TimesNewRomanPSMT-74" d="M 1031 3803 
L 1031 2863 
L 1700 2863 
L 1700 2644 
L 1031 2644 
L 1031 788 
Q 1031 509 1111 412 
Q 1191 316 1316 316 
Q 1419 316 1516 380 
Q 1613 444 1666 569 
L 1788 569 
Q 1678 263 1478 108 
Q 1278 -47 1066 -47 
Q 922 -47 784 33 
Q 647 113 581 261 
Q 516 409 516 719 
L 516 2644 
L 63 2644 
L 63 2747 
Q 234 2816 414 2980 
Q 594 3144 734 3369 
Q 806 3488 934 3803 
L 1031 3803 
z
" transform="scale(0.015625)"/>
      <path id="TimesNewRomanPSMT-76" d="M 53 2863 
L 1400 2863 
L 1400 2747 
L 1313 2747 
Q 1191 2747 1127 2687 
Q 1063 2628 1063 2528 
Q 1063 2419 1128 2269 
L 1794 688 
L 2463 2328 
Q 2534 2503 2534 2594 
Q 2534 2638 2509 2666 
Q 2475 2713 2422 2730 
Q 2369 2747 2206 2747 
L 2206 2863 
L 3141 2863 
L 3141 2747 
Q 2978 2734 2916 2681 
Q 2806 2588 2719 2369 
L 1703 -88 
L 1575 -88 
L 553 2328 
Q 484 2497 421 2570 
Q 359 2644 263 2694 
Q 209 2722 53 2747 
L 53 2863 
z
" transform="scale(0.015625)"/>
      <path id="TimesNewRomanPSMT-6c" d="M 1184 4444 
L 1184 647 
Q 1184 378 1223 290 
Q 1263 203 1344 158 
Q 1425 113 1647 113 
L 1647 0 
L 244 0 
L 244 113 
Q 441 113 512 153 
Q 584 194 625 287 
Q 666 381 666 647 
L 666 3247 
Q 666 3731 644 3842 
Q 622 3953 573 3993 
Q 525 4034 450 4034 
Q 369 4034 244 3984 
L 191 4094 
L 1044 4444 
L 1184 4444 
z
" transform="scale(0.015625)"/>
      <path id="TimesNewRomanPSMT-75" d="M 2709 2863 
L 2709 1128 
Q 2709 631 2732 520 
Q 2756 409 2807 365 
Q 2859 322 2928 322 
Q 3025 322 3147 375 
L 3191 266 
L 2334 -88 
L 2194 -88 
L 2194 519 
Q 1825 119 1631 15 
Q 1438 -88 1222 -88 
Q 981 -88 804 51 
Q 628 191 559 409 
Q 491 628 491 1028 
L 491 2306 
Q 491 2509 447 2587 
Q 403 2666 317 2708 
Q 231 2750 6 2747 
L 6 2863 
L 1009 2863 
L 1009 947 
Q 1009 547 1148 422 
Q 1288 297 1484 297 
Q 1619 297 1789 381 
Q 1959 466 2194 703 
L 2194 2325 
Q 2194 2569 2105 2655 
Q 2016 2741 1734 2747 
L 1734 2863 
L 2709 2863 
z
" transform="scale(0.015625)"/>
      <path id="TimesNewRomanPSMT-35" d="M 2778 4238 
L 2534 3706 
L 1259 3706 
L 981 3138 
Q 1809 3016 2294 2522 
Q 2709 2097 2709 1522 
Q 2709 1188 2573 903 
Q 2438 619 2231 419 
Q 2025 219 1772 97 
Q 1413 -75 1034 -75 
Q 653 -75 479 54 
Q 306 184 306 341 
Q 306 428 378 495 
Q 450 563 559 563 
Q 641 563 702 538 
Q 763 513 909 409 
Q 1144 247 1384 247 
Q 1750 247 2026 523 
Q 2303 800 2303 1197 
Q 2303 1581 2056 1914 
Q 1809 2247 1375 2428 
Q 1034 2569 447 2591 
L 1259 4238 
L 2778 4238 
z
" transform="scale(0.015625)"/>
     </defs>
     <use xlink:href="#TimesNewRomanPSMT-69"/>
     <use xlink:href="#TimesNewRomanPSMT-6e" x="27.783203"/>
     <use xlink:href="#TimesNewRomanPSMT-73" x="77.783203"/>
     <use xlink:href="#TimesNewRomanPSMT-65" x="116.699219"/>
     <use xlink:href="#TimesNewRomanPSMT-72" x="161.083984"/>
     <use xlink:href="#TimesNewRomanPSMT-74" x="194.384766"/>
     <use xlink:href="#TimesNewRomanPSMT-76" x="222.167969"/>
     <use xlink:href="#TimesNewRomanPSMT-61" x="272.167969"/>
     <use xlink:href="#TimesNewRomanPSMT-6c" x="316.552734"/>
     <use xlink:href="#TimesNewRomanPSMT-75" x="344.335938"/>
     <use xlink:href="#TimesNewRomanPSMT-65" x="394.335938"/>
     <use xlink:href="#TimesNewRomanPSMT-3a" x="438.720703"/>
     <use xlink:href="#TimesNewRomanPSMT-35" x="466.503906"/>
     <use xlink:href="#TimesNewRomanPSMT-39" x="516.503906"/>
     <use xlink:href="#TimesNewRomanPSMT-35" x="566.503906"/>
     <use xlink:href="#TimesNewRomanPSMT-36" x="616.503906"/>
    </g>
    <!--  -->
    <g transform="translate(119.204032 187.751915) scale(0.1 -0.1)"/>
   </g>
   <g id="text_8">
    <!-- 17.8% -->
    <g transform="translate(159.450992 179.977138) scale(0.1 -0.1)">
     <defs>
      <path id="TimesNewRomanPSMT-38" d="M 1228 2134 
Q 725 2547 579 2797 
Q 434 3047 434 3316 
Q 434 3728 753 4026 
Q 1072 4325 1600 4325 
Q 2113 4325 2425 4047 
Q 2738 3769 2738 3413 
Q 2738 3175 2569 2928 
Q 2400 2681 1866 2347 
Q 2416 1922 2594 1678 
Q 2831 1359 2831 1006 
Q 2831 559 2490 242 
Q 2150 -75 1597 -75 
Q 994 -75 656 303 
Q 388 606 388 966 
Q 388 1247 577 1523 
Q 766 1800 1228 2134 
z
M 1719 2469 
Q 2094 2806 2194 3001 
Q 2294 3197 2294 3444 
Q 2294 3772 2109 3958 
Q 1925 4144 1606 4144 
Q 1288 4144 1088 3959 
Q 888 3775 888 3528 
Q 888 3366 970 3203 
Q 1053 3041 1206 2894 
L 1719 2469 
z
M 1375 2016 
Q 1116 1797 991 1539 
Q 866 1281 866 981 
Q 866 578 1086 336 
Q 1306 94 1647 94 
Q 1984 94 2187 284 
Q 2391 475 2391 747 
Q 2391 972 2272 1150 
Q 2050 1481 1375 2016 
z
" transform="scale(0.015625)"/>
     </defs>
     <use xlink:href="#TimesNewRomanPSMT-31"/>
     <use xlink:href="#TimesNewRomanPSMT-37" x="50"/>
     <use xlink:href="#TimesNewRomanPSMT-2e" x="100"/>
     <use xlink:href="#TimesNewRomanPSMT-38" x="125"/>
     <use xlink:href="#TimesNewRomanPSMT-25" x="175"/>
    </g>
   </g>
   <g id="text_9">
    <!-- mul:2499 -->
    <g transform="translate(119.712852 258.920098) scale(0.1 -0.1)">
     <defs>
      <path id="TimesNewRomanPSMT-6d" d="M 1050 2338 
Q 1363 2650 1419 2697 
Q 1559 2816 1721 2881 
Q 1884 2947 2044 2947 
Q 2313 2947 2506 2790 
Q 2700 2634 2766 2338 
Q 3088 2713 3309 2830 
Q 3531 2947 3766 2947 
Q 3994 2947 4170 2830 
Q 4347 2713 4450 2447 
Q 4519 2266 4519 1878 
L 4519 647 
Q 4519 378 4559 278 
Q 4591 209 4675 161 
Q 4759 113 4950 113 
L 4950 0 
L 3538 0 
L 3538 113 
L 3597 113 
Q 3781 113 3884 184 
Q 3956 234 3988 344 
Q 4000 397 4000 647 
L 4000 1878 
Q 4000 2228 3916 2372 
Q 3794 2572 3525 2572 
Q 3359 2572 3192 2489 
Q 3025 2406 2788 2181 
L 2781 2147 
L 2788 2013 
L 2788 647 
Q 2788 353 2820 281 
Q 2853 209 2943 161 
Q 3034 113 3253 113 
L 3253 0 
L 1806 0 
L 1806 113 
Q 2044 113 2133 169 
Q 2222 225 2256 338 
Q 2272 391 2272 647 
L 2272 1878 
Q 2272 2228 2169 2381 
Q 2031 2581 1784 2581 
Q 1616 2581 1450 2491 
Q 1191 2353 1050 2181 
L 1050 647 
Q 1050 366 1089 281 
Q 1128 197 1204 155 
Q 1281 113 1516 113 
L 1516 0 
L 100 0 
L 100 113 
Q 297 113 375 155 
Q 453 197 493 289 
Q 534 381 534 647 
L 534 1741 
Q 534 2213 506 2350 
Q 484 2453 437 2492 
Q 391 2531 309 2531 
Q 222 2531 100 2484 
L 53 2597 
L 916 2947 
L 1050 2947 
L 1050 2338 
z
" transform="scale(0.015625)"/>
     </defs>
     <use xlink:href="#TimesNewRomanPSMT-6d"/>
     <use xlink:href="#TimesNewRomanPSMT-75" x="77.783203"/>
     <use xlink:href="#TimesNewRomanPSMT-6c" x="127.783203"/>
     <use xlink:href="#TimesNewRomanPSMT-3a" x="155.566406"/>
     <use xlink:href="#TimesNewRomanPSMT-32" x="183.349609"/>
     <use xlink:href="#TimesNewRomanPSMT-34" x="233.349609"/>
     <use xlink:href="#TimesNewRomanPSMT-39" x="283.349609"/>
     <use xlink:href="#TimesNewRomanPSMT-39" x="333.349609"/>
    </g>
    <!--  -->
    <g transform="translate(158.047227 269.391661) scale(0.1 -0.1)"/>
   </g>
   <g id="text_10">
    <!-- 7.5% -->
    <g transform="translate(183.138189 224.507909) scale(0.1 -0.1)">
     <use xlink:href="#TimesNewRomanPSMT-37"/>
     <use xlink:href="#TimesNewRomanPSMT-2e" x="50"/>
     <use xlink:href="#TimesNewRomanPSMT-35" x="75"/>
     <use xlink:href="#TimesNewRomanPSMT-25" x="125"/>
    </g>
   </g>
   <g id="text_11">
    <!-- inttoptr:2049 -->
    <g transform="translate(148.899132 283.417698) scale(0.1 -0.1)">
     <defs>
      <path id="TimesNewRomanPSMT-6f" d="M 1600 2947 
Q 2250 2947 2644 2453 
Q 2978 2031 2978 1484 
Q 2978 1100 2793 706 
Q 2609 313 2286 112 
Q 1963 -88 1566 -88 
Q 919 -88 538 428 
Q 216 863 216 1403 
Q 216 1797 411 2186 
Q 606 2575 925 2761 
Q 1244 2947 1600 2947 
z
M 1503 2744 
Q 1338 2744 1170 2645 
Q 1003 2547 900 2300 
Q 797 2053 797 1666 
Q 797 1041 1045 587 
Q 1294 134 1700 134 
Q 2003 134 2200 384 
Q 2397 634 2397 1244 
Q 2397 2006 2069 2444 
Q 1847 2744 1503 2744 
z
" transform="scale(0.015625)"/>
     </defs>
     <use xlink:href="#TimesNewRomanPSMT-69"/>
     <use xlink:href="#TimesNewRomanPSMT-6e" x="27.783203"/>
     <use xlink:href="#TimesNewRomanPSMT-74" x="77.783203"/>
     <use xlink:href="#TimesNewRomanPSMT-74" x="105.566406"/>
     <use xlink:href="#TimesNewRomanPSMT-6f" x="133.349609"/>
     <use xlink:href="#TimesNewRomanPSMT-70" x="183.349609"/>
     <use xlink:href="#TimesNewRomanPSMT-74" x="233.349609"/>
     <use xlink:href="#TimesNewRomanPSMT-72" x="261.132812"/>
     <use xlink:href="#TimesNewRomanPSMT-3a" x="294.433594"/>
     <use xlink:href="#TimesNewRomanPSMT-32" x="322.216797"/>
     <use xlink:href="#TimesNewRomanPSMT-30" x="372.216797"/>
     <use xlink:href="#TimesNewRomanPSMT-34" x="422.216797"/>
     <use xlink:href="#TimesNewRomanPSMT-39" x="472.216797"/>
    </g>
    <!--  -->
    <g transform="translate(201.119445 293.88926) scale(0.1 -0.1)"/>
   </g>
   <g id="text_12">
    <!-- 6.1% -->
    <g transform="translate(206.632126 237.870236) scale(0.1 -0.1)">
     <use xlink:href="#TimesNewRomanPSMT-36"/>
     <use xlink:href="#TimesNewRomanPSMT-2e" x="50"/>
     <use xlink:href="#TimesNewRomanPSMT-31" x="75"/>
     <use xlink:href="#TimesNewRomanPSMT-25" x="125"/>
    </g>
   </g>
   <g id="text_13">
    <!-- icmp:1735 -->
    <g transform="translate(242.113109 288.632409) scale(0.1 -0.1)">
     <defs>
      <path id="TimesNewRomanPSMT-63" d="M 2631 1088 
Q 2516 522 2178 217 
Q 1841 -88 1431 -88 
Q 944 -88 581 321 
Q 219 731 219 1428 
Q 219 2103 620 2525 
Q 1022 2947 1584 2947 
Q 2006 2947 2278 2723 
Q 2550 2500 2550 2259 
Q 2550 2141 2473 2067 
Q 2397 1994 2259 1994 
Q 2075 1994 1981 2113 
Q 1928 2178 1911 2362 
Q 1894 2547 1784 2644 
Q 1675 2738 1481 2738 
Q 1169 2738 978 2506 
Q 725 2200 725 1697 
Q 725 1184 976 792 
Q 1228 400 1656 400 
Q 1963 400 2206 609 
Q 2378 753 2541 1131 
L 2631 1088 
z
" transform="scale(0.015625)"/>
      <path id="TimesNewRomanPSMT-33" d="M 325 3431 
Q 506 3859 782 4092 
Q 1059 4325 1472 4325 
Q 1981 4325 2253 3994 
Q 2459 3747 2459 3466 
Q 2459 3003 1878 2509 
Q 2269 2356 2469 2072 
Q 2669 1788 2669 1403 
Q 2669 853 2319 450 
Q 1863 -75 997 -75 
Q 569 -75 414 31 
Q 259 138 259 259 
Q 259 350 332 419 
Q 406 488 509 488 
Q 588 488 669 463 
Q 722 447 909 348 
Q 1097 250 1169 231 
Q 1284 197 1416 197 
Q 1734 197 1970 444 
Q 2206 691 2206 1028 
Q 2206 1275 2097 1509 
Q 2016 1684 1919 1775 
Q 1784 1900 1550 2001 
Q 1316 2103 1072 2103 
L 972 2103 
L 972 2197 
Q 1219 2228 1467 2375 
Q 1716 2522 1828 2728 
Q 1941 2934 1941 3181 
Q 1941 3503 1739 3701 
Q 1538 3900 1238 3900 
Q 753 3900 428 3381 
L 325 3431 
z
" transform="scale(0.015625)"/>
     </defs>
     <use xlink:href="#TimesNewRomanPSMT-69"/>
     <use xlink:href="#TimesNewRomanPSMT-63" x="27.783203"/>
     <use xlink:href="#TimesNewRomanPSMT-6d" x="72.167969"/>
     <use xlink:href="#TimesNewRomanPSMT-70" x="149.951172"/>
     <use xlink:href="#TimesNewRomanPSMT-3a" x="199.951172"/>
     <use xlink:href="#TimesNewRomanPSMT-31" x="227.734375"/>
     <use xlink:href="#TimesNewRomanPSMT-37" x="277.734375"/>
     <use xlink:href="#TimesNewRomanPSMT-33" x="327.734375"/>
     <use xlink:href="#TimesNewRomanPSMT-35" x="377.734375"/>
    </g>
    <!--  -->
    <g transform="translate(242.113109 299.103972) scale(0.1 -0.1)"/>
   </g>
   <g id="text_14">
    <!-- 5.2% -->
    <g transform="translate(228.992307 240.714624) scale(0.1 -0.1)">
     <use xlink:href="#TimesNewRomanPSMT-35"/>
     <use xlink:href="#TimesNewRomanPSMT-2e" x="50"/>
     <use xlink:href="#TimesNewRomanPSMT-32" x="75"/>
     <use xlink:href="#TimesNewRomanPSMT-25" x="125"/>
    </g>
   </g>
   <g id="text_15">
    <!-- getelementptr:1552 -->
    <g transform="translate(277.303545 281.307759) scale(0.1 -0.1)">
     <defs>
      <path id="TimesNewRomanPSMT-67" d="M 966 1044 
Q 703 1172 562 1401 
Q 422 1631 422 1909 
Q 422 2334 742 2640 
Q 1063 2947 1563 2947 
Q 1972 2947 2272 2747 
L 2878 2747 
Q 3013 2747 3034 2739 
Q 3056 2731 3066 2713 
Q 3084 2684 3084 2613 
Q 3084 2531 3069 2500 
Q 3059 2484 3036 2475 
Q 3013 2466 2878 2466 
L 2506 2466 
Q 2681 2241 2681 1891 
Q 2681 1491 2375 1206 
Q 2069 922 1553 922 
Q 1341 922 1119 984 
Q 981 866 932 777 
Q 884 688 884 625 
Q 884 572 936 522 
Q 988 472 1138 450 
Q 1225 438 1575 428 
Q 2219 413 2409 384 
Q 2700 344 2873 169 
Q 3047 -6 3047 -263 
Q 3047 -616 2716 -925 
Q 2228 -1381 1444 -1381 
Q 841 -1381 425 -1109 
Q 191 -953 191 -784 
Q 191 -709 225 -634 
Q 278 -519 444 -313 
Q 466 -284 763 25 
Q 600 122 533 198 
Q 466 275 466 372 
Q 466 481 555 628 
Q 644 775 966 1044 
z
M 1509 2797 
Q 1278 2797 1122 2612 
Q 966 2428 966 2047 
Q 966 1553 1178 1281 
Q 1341 1075 1591 1075 
Q 1828 1075 1981 1253 
Q 2134 1431 2134 1813 
Q 2134 2309 1919 2591 
Q 1759 2797 1509 2797 
z
M 934 0 
Q 788 -159 713 -296 
Q 638 -434 638 -550 
Q 638 -700 819 -813 
Q 1131 -1006 1722 -1006 
Q 2284 -1006 2551 -807 
Q 2819 -609 2819 -384 
Q 2819 -222 2659 -153 
Q 2497 -84 2016 -72 
Q 1313 -53 934 0 
z
" transform="scale(0.015625)"/>
     </defs>
     <use xlink:href="#TimesNewRomanPSMT-67"/>
     <use xlink:href="#TimesNewRomanPSMT-65" x="50"/>
     <use xlink:href="#TimesNewRomanPSMT-74" x="94.384766"/>
     <use xlink:href="#TimesNewRomanPSMT-65" x="122.167969"/>
     <use xlink:href="#TimesNewRomanPSMT-6c" x="166.552734"/>
     <use xlink:href="#TimesNewRomanPSMT-65" x="194.335938"/>
     <use xlink:href="#TimesNewRomanPSMT-6d" x="238.720703"/>
     <use xlink:href="#TimesNewRomanPSMT-65" x="316.503906"/>
     <use xlink:href="#TimesNewRomanPSMT-6e" x="360.888672"/>
     <use xlink:href="#TimesNewRomanPSMT-74" x="410.888672"/>
     <use xlink:href="#TimesNewRomanPSMT-70" x="438.671875"/>
     <use xlink:href="#TimesNewRomanPSMT-74" x="488.671875"/>
     <use xlink:href="#TimesNewRomanPSMT-72" x="516.455078"/>
     <use xlink:href="#TimesNewRomanPSMT-3a" x="549.755859"/>
     <use xlink:href="#TimesNewRomanPSMT-31" x="577.539062"/>
     <use xlink:href="#TimesNewRomanPSMT-35" x="627.539062"/>
     <use xlink:href="#TimesNewRomanPSMT-35" x="677.539062"/>
     <use xlink:href="#TimesNewRomanPSMT-32" x="727.539062"/>
    </g>
    <!--  -->
    <g transform="translate(277.303545 291.798072) scale(0.1 -0.1)"/>
   </g>
   <g id="text_16">
    <!-- 4.6% -->
    <g transform="translate(248.18709 236.724474) scale(0.1 -0.1)">
     <use xlink:href="#TimesNewRomanPSMT-34"/>
     <use xlink:href="#TimesNewRomanPSMT-2e" x="50"/>
     <use xlink:href="#TimesNewRomanPSMT-36" x="75"/>
     <use xlink:href="#TimesNewRomanPSMT-25" x="125"/>
    </g>
   </g>
   <g id="text_17">
    <!-- load:1450 -->
    <g transform="translate(306.133693 265.575241) scale(0.1 -0.1)">
     <use xlink:href="#TimesNewRomanPSMT-6c"/>
     <use xlink:href="#TimesNewRomanPSMT-6f" x="27.783203"/>
     <use xlink:href="#TimesNewRomanPSMT-61" x="77.783203"/>
     <use xlink:href="#TimesNewRomanPSMT-64" x="122.167969"/>
     <use xlink:href="#TimesNewRomanPSMT-3a" x="172.167969"/>
     <use xlink:href="#TimesNewRomanPSMT-31" x="199.951172"/>
     <use xlink:href="#TimesNewRomanPSMT-34" x="249.951172"/>
     <use xlink:href="#TimesNewRomanPSMT-35" x="299.951172"/>
     <use xlink:href="#TimesNewRomanPSMT-30" x="349.951172"/>
    </g>
    <!--  -->
    <g transform="translate(306.133693 276.046804) scale(0.1 -0.1)"/>
   </g>
   <g id="text_18">
    <!-- 4.3% -->
    <g transform="translate(263.912625 228.137987) scale(0.1 -0.1)">
     <use xlink:href="#TimesNewRomanPSMT-34"/>
     <use xlink:href="#TimesNewRomanPSMT-2e" x="50"/>
     <use xlink:href="#TimesNewRomanPSMT-33" x="75"/>
     <use xlink:href="#TimesNewRomanPSMT-25" x="125"/>
    </g>
   </g>
   <g id="text_19">
    <!-- call:1231 -->
    <g transform="translate(327.28555 245.220297) scale(0.1 -0.1)">
     <use xlink:href="#TimesNewRomanPSMT-63"/>
     <use xlink:href="#TimesNewRomanPSMT-61" x="44.384766"/>
     <use xlink:href="#TimesNewRomanPSMT-6c" x="88.769531"/>
     <use xlink:href="#TimesNewRomanPSMT-6c" x="116.552734"/>
     <use xlink:href="#TimesNewRomanPSMT-3a" x="144.335938"/>
     <use xlink:href="#TimesNewRomanPSMT-31" x="172.119141"/>
     <use xlink:href="#TimesNewRomanPSMT-32" x="222.119141"/>
     <use xlink:href="#TimesNewRomanPSMT-33" x="272.119141"/>
     <use xlink:href="#TimesNewRomanPSMT-31" x="322.119141"/>
    </g>
    <!--  -->
    <g transform="translate(327.28555 255.69186) scale(0.1 -0.1)"/>
   </g>
   <g id="text_20">
    <!-- 3.7% -->
    <g transform="translate(275.450002 217.03529) scale(0.1 -0.1)">
     <use xlink:href="#TimesNewRomanPSMT-33"/>
     <use xlink:href="#TimesNewRomanPSMT-2e" x="50"/>
     <use xlink:href="#TimesNewRomanPSMT-37" x="75"/>
     <use xlink:href="#TimesNewRomanPSMT-25" x="125"/>
    </g>
   </g>
   <g id="text_21">
    <!-- sub:536 -->
    <g transform="translate(338.163384 229.185511) scale(0.1 -0.1)">
     <defs>
      <path id="TimesNewRomanPSMT-62" d="M 984 2369 
Q 1400 2947 1881 2947 
Q 2322 2947 2650 2570 
Q 2978 2194 2978 1541 
Q 2978 778 2472 313 
Q 2038 -88 1503 -88 
Q 1253 -88 995 3 
Q 738 94 469 275 
L 469 3241 
Q 469 3728 445 3840 
Q 422 3953 372 3993 
Q 322 4034 247 4034 
Q 159 4034 28 3984 
L -16 4094 
L 844 4444 
L 984 4444 
L 984 2369 
z
M 984 2169 
L 984 456 
Q 1144 300 1314 220 
Q 1484 141 1663 141 
Q 1947 141 2192 453 
Q 2438 766 2438 1363 
Q 2438 1913 2192 2208 
Q 1947 2503 1634 2503 
Q 1469 2503 1303 2419 
Q 1178 2356 984 2169 
z
" transform="scale(0.015625)"/>
     </defs>
     <use xlink:href="#TimesNewRomanPSMT-73"/>
     <use xlink:href="#TimesNewRomanPSMT-75" x="38.916016"/>
     <use xlink:href="#TimesNewRomanPSMT-62" x="88.916016"/>
     <use xlink:href="#TimesNewRomanPSMT-3a" x="138.916016"/>
     <use xlink:href="#TimesNewRomanPSMT-35" x="166.699219"/>
     <use xlink:href="#TimesNewRomanPSMT-33" x="216.699219"/>
     <use xlink:href="#TimesNewRomanPSMT-36" x="266.699219"/>
    </g>
    <!--  -->
    <g transform="translate(338.163384 239.657073) scale(0.1 -0.1)"/>
   </g>
   <g id="text_22">
    <!-- 1.6% -->
    <g transform="translate(281.383366 208.289043) scale(0.1 -0.1)">
     <use xlink:href="#TimesNewRomanPSMT-31"/>
     <use xlink:href="#TimesNewRomanPSMT-2e" x="50"/>
     <use xlink:href="#TimesNewRomanPSMT-36" x="75"/>
     <use xlink:href="#TimesNewRomanPSMT-25" x="125"/>
    </g>
   </g>
   <g id="text_23">
    <!-- ptrtoint:532 -->
    <g transform="translate(343.399653 218.700481) scale(0.1 -0.1)">
     <use xlink:href="#TimesNewRomanPSMT-70"/>
     <use xlink:href="#TimesNewRomanPSMT-74" x="50"/>
     <use xlink:href="#TimesNewRomanPSMT-72" x="77.783203"/>
     <use xlink:href="#TimesNewRomanPSMT-74" x="111.083984"/>
     <use xlink:href="#TimesNewRomanPSMT-6f" x="138.867188"/>
     <use xlink:href="#TimesNewRomanPSMT-69" x="188.867188"/>
     <use xlink:href="#TimesNewRomanPSMT-6e" x="216.650391"/>
     <use xlink:href="#TimesNewRomanPSMT-74" x="266.650391"/>
     <use xlink:href="#TimesNewRomanPSMT-3a" x="294.433594"/>
     <use xlink:href="#TimesNewRomanPSMT-35" x="322.216797"/>
     <use xlink:href="#TimesNewRomanPSMT-33" x="372.216797"/>
     <use xlink:href="#TimesNewRomanPSMT-32" x="422.216797"/>
    </g>
    <!--  -->
    <g transform="translate(343.399653 229.172043) scale(0.1 -0.1)"/>
   </g>
   <g id="text_24">
    <!-- 1.6% -->
    <g transform="translate(284.239512 202.569935) scale(0.1 -0.1)">
     <use xlink:href="#TimesNewRomanPSMT-31"/>
     <use xlink:href="#TimesNewRomanPSMT-2e" x="50"/>
     <use xlink:href="#TimesNewRomanPSMT-36" x="75"/>
     <use xlink:href="#TimesNewRomanPSMT-25" x="125"/>
    </g>
   </g>
   <g id="text_25">
    <!-- urem:532 -->
    <g transform="translate(347.548 207.786293) scale(0.1 -0.1)">
     <use xlink:href="#TimesNewRomanPSMT-75"/>
     <use xlink:href="#TimesNewRomanPSMT-72" x="50"/>
     <use xlink:href="#TimesNewRomanPSMT-65" x="83.300781"/>
     <use xlink:href="#TimesNewRomanPSMT-6d" x="127.685547"/>
     <use xlink:href="#TimesNewRomanPSMT-3a" x="205.46875"/>
     <use xlink:href="#TimesNewRomanPSMT-35" x="233.251953"/>
     <use xlink:href="#TimesNewRomanPSMT-33" x="283.251953"/>
     <use xlink:href="#TimesNewRomanPSMT-32" x="333.251953"/>
    </g>
    <!--  -->
    <g transform="translate(347.548 218.257856) scale(0.1 -0.1)"/>
   </g>
   <g id="text_26">
    <!-- 1.6% -->
    <g transform="translate(286.502247 196.616742) scale(0.1 -0.1)">
     <use xlink:href="#TimesNewRomanPSMT-31"/>
     <use xlink:href="#TimesNewRomanPSMT-2e" x="50"/>
     <use xlink:href="#TimesNewRomanPSMT-36" x="75"/>
     <use xlink:href="#TimesNewRomanPSMT-25" x="125"/>
    </g>
   </g>
   <g id="text_27">
    <!-- alloca:352 -->
    <g transform="translate(350.153596 198.440767) scale(0.1 -0.1)">
     <use xlink:href="#TimesNewRomanPSMT-61"/>
     <use xlink:href="#TimesNewRomanPSMT-6c" x="44.384766"/>
     <use xlink:href="#TimesNewRomanPSMT-6c" x="72.167969"/>
     <use xlink:href="#TimesNewRomanPSMT-6f" x="99.951172"/>
     <use xlink:href="#TimesNewRomanPSMT-63" x="149.951172"/>
     <use xlink:href="#TimesNewRomanPSMT-61" x="194.335938"/>
     <use xlink:href="#TimesNewRomanPSMT-3a" x="238.720703"/>
     <use xlink:href="#TimesNewRomanPSMT-33" x="266.503906"/>
     <use xlink:href="#TimesNewRomanPSMT-35" x="316.503906"/>
     <use xlink:href="#TimesNewRomanPSMT-32" x="366.503906"/>
    </g>
    <!--  -->
    <g transform="translate(350.153596 208.91233) scale(0.1 -0.1)"/>
   </g>
   <g id="text_28">
    <!-- 1.1% -->
    <g transform="translate(287.923482 191.519183) scale(0.1 -0.1)">
     <use xlink:href="#TimesNewRomanPSMT-31"/>
     <use xlink:href="#TimesNewRomanPSMT-2e" x="50"/>
     <use xlink:href="#TimesNewRomanPSMT-31" x="75"/>
     <use xlink:href="#TimesNewRomanPSMT-25" x="125"/>
    </g>
   </g>
   <g id="text_29">
    <!-- fadd:316 -->
    <g transform="translate(351.604142 191.253436) scale(0.1 -0.1)">
     <defs>
      <path id="TimesNewRomanPSMT-66" d="M 1319 2638 
L 1319 756 
Q 1319 356 1406 250 
Q 1522 113 1716 113 
L 1975 113 
L 1975 0 
L 266 0 
L 266 113 
L 394 113 
Q 519 113 622 175 
Q 725 238 764 344 
Q 803 450 803 756 
L 803 2638 
L 247 2638 
L 247 2863 
L 803 2863 
L 803 3050 
Q 803 3478 940 3775 
Q 1078 4072 1361 4255 
Q 1644 4438 1997 4438 
Q 2325 4438 2600 4225 
Q 2781 4084 2781 3909 
Q 2781 3816 2700 3733 
Q 2619 3650 2525 3650 
Q 2453 3650 2373 3701 
Q 2294 3753 2178 3923 
Q 2063 4094 1966 4153 
Q 1869 4213 1750 4213 
Q 1606 4213 1506 4136 
Q 1406 4059 1362 3898 
Q 1319 3738 1319 3069 
L 1319 2863 
L 2056 2863 
L 2056 2638 
L 1319 2638 
z
" transform="scale(0.015625)"/>
     </defs>
     <use xlink:href="#TimesNewRomanPSMT-66"/>
     <use xlink:href="#TimesNewRomanPSMT-61" x="33.300781"/>
     <use xlink:href="#TimesNewRomanPSMT-64" x="77.685547"/>
     <use xlink:href="#TimesNewRomanPSMT-64" x="127.685547"/>
     <use xlink:href="#TimesNewRomanPSMT-3a" x="177.685547"/>
     <use xlink:href="#TimesNewRomanPSMT-33" x="205.46875"/>
     <use xlink:href="#TimesNewRomanPSMT-31" x="255.46875"/>
     <use xlink:href="#TimesNewRomanPSMT-36" x="305.46875"/>
    </g>
    <!--  -->
    <g transform="translate(351.604142 201.724999) scale(0.1 -0.1)"/>
   </g>
   <g id="text_30">
    <!-- 0.9% -->
    <g transform="translate(288.714688 187.59882) scale(0.1 -0.1)">
     <use xlink:href="#TimesNewRomanPSMT-30"/>
     <use xlink:href="#TimesNewRomanPSMT-2e" x="50"/>
     <use xlink:href="#TimesNewRomanPSMT-39" x="75"/>
     <use xlink:href="#TimesNewRomanPSMT-25" x="125"/>
    </g>
   </g>
   <g id="text_31">
    <!-- fmul:293 -->
    <g transform="translate(352.532193 184.63335) scale(0.1 -0.1)">
     <use xlink:href="#TimesNewRomanPSMT-66"/>
     <use xlink:href="#TimesNewRomanPSMT-6d" x="33.300781"/>
     <use xlink:href="#TimesNewRomanPSMT-75" x="111.083984"/>
     <use xlink:href="#TimesNewRomanPSMT-6c" x="161.083984"/>
     <use xlink:href="#TimesNewRomanPSMT-3a" x="188.867188"/>
     <use xlink:href="#TimesNewRomanPSMT-32" x="216.650391"/>
     <use xlink:href="#TimesNewRomanPSMT-39" x="266.650391"/>
     <use xlink:href="#TimesNewRomanPSMT-33" x="316.650391"/>
    </g>
    <!--  -->
    <g transform="translate(352.532193 195.104912) scale(0.1 -0.1)"/>
   </g>
   <g id="text_32">
    <!-- 0.9% -->
    <g transform="translate(289.220898 183.987864) scale(0.1 -0.1)">
     <use xlink:href="#TimesNewRomanPSMT-30"/>
     <use xlink:href="#TimesNewRomanPSMT-2e" x="50"/>
     <use xlink:href="#TimesNewRomanPSMT-39" x="75"/>
     <use xlink:href="#TimesNewRomanPSMT-25" x="125"/>
    </g>
   </g>
   <g id="text_33">
    <!-- fcmp:144 -->
    <g transform="translate(352.964516 179.855728) scale(0.1 -0.1)">
     <use xlink:href="#TimesNewRomanPSMT-66"/>
     <use xlink:href="#TimesNewRomanPSMT-63" x="33.300781"/>
     <use xlink:href="#TimesNewRomanPSMT-6d" x="77.685547"/>
     <use xlink:href="#TimesNewRomanPSMT-70" x="155.46875"/>
     <use xlink:href="#TimesNewRomanPSMT-3a" x="205.46875"/>
     <use xlink:href="#TimesNewRomanPSMT-31" x="233.251953"/>
     <use xlink:href="#TimesNewRomanPSMT-34" x="283.251953"/>
     <use xlink:href="#TimesNewRomanPSMT-34" x="333.251953"/>
    </g>
    <!--  -->
    <g transform="translate(352.964516 190.327291) scale(0.1 -0.1)"/>
   </g>
   <g id="text_34">
    <!-- 0.4% -->
    <g transform="translate(289.45671 181.381889) scale(0.1 -0.1)">
     <use xlink:href="#TimesNewRomanPSMT-30"/>
     <use xlink:href="#TimesNewRomanPSMT-2e" x="50"/>
     <use xlink:href="#TimesNewRomanPSMT-34" x="75"/>
     <use xlink:href="#TimesNewRomanPSMT-25" x="125"/>
    </g>
   </g>
   <g id="text_35">
    <!-- select:144 -->
    <g transform="translate(353.142281 176.699102) scale(0.1 -0.1)">
     <use xlink:href="#TimesNewRomanPSMT-73"/>
     <use xlink:href="#TimesNewRomanPSMT-65" x="38.916016"/>
     <use xlink:href="#TimesNewRomanPSMT-6c" x="83.300781"/>
     <use xlink:href="#TimesNewRomanPSMT-65" x="111.083984"/>
     <use xlink:href="#TimesNewRomanPSMT-63" x="155.46875"/>
     <use xlink:href="#TimesNewRomanPSMT-74" x="199.853516"/>
     <use xlink:href="#TimesNewRomanPSMT-3a" x="227.636719"/>
     <use xlink:href="#TimesNewRomanPSMT-31" x="255.419922"/>
     <use xlink:href="#TimesNewRomanPSMT-34" x="305.419922"/>
     <use xlink:href="#TimesNewRomanPSMT-34" x="355.419922"/>
    </g>
    <!--  -->
    <g transform="translate(353.142281 187.170664) scale(0.1 -0.1)"/>
   </g>
   <g id="text_36">
    <!-- 0.4% -->
    <g transform="translate(289.553673 179.660093) scale(0.1 -0.1)">
     <use xlink:href="#TimesNewRomanPSMT-30"/>
     <use xlink:href="#TimesNewRomanPSMT-2e" x="50"/>
     <use xlink:href="#TimesNewRomanPSMT-34" x="75"/>
     <use xlink:href="#TimesNewRomanPSMT-25" x="125"/>
    </g>
   </g>
   <g id="text_37">
    <!-- fsub:72 -->
    <g transform="translate(353.219637 174.329112) scale(0.1 -0.1)">
     <use xlink:href="#TimesNewRomanPSMT-66"/>
     <use xlink:href="#TimesNewRomanPSMT-73" x="33.300781"/>
     <use xlink:href="#TimesNewRomanPSMT-75" x="72.216797"/>
     <use xlink:href="#TimesNewRomanPSMT-62" x="122.216797"/>
     <use xlink:href="#TimesNewRomanPSMT-3a" x="172.216797"/>
     <use xlink:href="#TimesNewRomanPSMT-37" x="200"/>
     <use xlink:href="#TimesNewRomanPSMT-32" x="250"/>
    </g>
    <!--  -->
    <g transform="translate(353.219637 184.800674) scale(0.1 -0.1)"/>
   </g>
   <g id="text_38">
    <!-- 0.2% -->
    <g transform="translate(289.595867 178.367371) scale(0.1 -0.1)">
     <use xlink:href="#TimesNewRomanPSMT-30"/>
     <use xlink:href="#TimesNewRomanPSMT-2e" x="50"/>
     <use xlink:href="#TimesNewRomanPSMT-32" x="75"/>
     <use xlink:href="#TimesNewRomanPSMT-25" x="125"/>
    </g>
   </g>
   <g id="text_39">
    <!-- fdiv:72 -->
    <g transform="translate(353.244537 172.748458) scale(0.1 -0.1)">
     <use xlink:href="#TimesNewRomanPSMT-66"/>
     <use xlink:href="#TimesNewRomanPSMT-64" x="33.300781"/>
     <use xlink:href="#TimesNewRomanPSMT-69" x="83.300781"/>
     <use xlink:href="#TimesNewRomanPSMT-76" x="111.083984"/>
     <use xlink:href="#TimesNewRomanPSMT-3a" x="161.083984"/>
     <use xlink:href="#TimesNewRomanPSMT-37" x="188.867188"/>
     <use xlink:href="#TimesNewRomanPSMT-32" x="238.867188"/>
    </g>
    <!--  -->
    <g transform="translate(353.244537 183.22002) scale(0.1 -0.1)"/>
   </g>
   <g id="text_40">
    <!-- 0.2% -->
    <g transform="translate(289.609449 177.505196) scale(0.1 -0.1)">
     <use xlink:href="#TimesNewRomanPSMT-30"/>
     <use xlink:href="#TimesNewRomanPSMT-2e" x="50"/>
     <use xlink:href="#TimesNewRomanPSMT-32" x="75"/>
     <use xlink:href="#TimesNewRomanPSMT-25" x="125"/>
    </g>
   </g>
   <g id="text_41">
    <!-- extractvalue:11 -->
    <g transform="translate(353.249193 171.837281) scale(0.1 -0.1)">
     <defs>
      <path id="TimesNewRomanPSMT-78" d="M 84 2863 
L 1431 2863 
L 1431 2747 
Q 1303 2747 1251 2703 
Q 1200 2659 1200 2588 
Q 1200 2513 1309 2356 
Q 1344 2306 1413 2200 
L 1616 1875 
L 1850 2200 
Q 2075 2509 2075 2591 
Q 2075 2656 2022 2701 
Q 1969 2747 1850 2747 
L 1850 2863 
L 2819 2863 
L 2819 2747 
Q 2666 2738 2553 2663 
Q 2400 2556 2134 2200 
L 1744 1678 
L 2456 653 
Q 2719 275 2831 198 
Q 2944 122 3122 113 
L 3122 0 
L 1772 0 
L 1772 113 
Q 1913 113 1991 175 
Q 2050 219 2050 291 
Q 2050 363 1850 653 
L 1431 1266 
L 972 653 
Q 759 369 759 316 
Q 759 241 829 180 
Q 900 119 1041 113 
L 1041 0 
L 106 0 
L 106 113 
Q 219 128 303 191 
Q 422 281 703 653 
L 1303 1450 
L 759 2238 
Q 528 2575 401 2661 
Q 275 2747 84 2747 
L 84 2863 
z
" transform="scale(0.015625)"/>
     </defs>
     <use xlink:href="#TimesNewRomanPSMT-65"/>
     <use xlink:href="#TimesNewRomanPSMT-78" x="44.384766"/>
     <use xlink:href="#TimesNewRomanPSMT-74" x="94.384766"/>
     <use xlink:href="#TimesNewRomanPSMT-72" x="122.167969"/>
     <use xlink:href="#TimesNewRomanPSMT-61" x="155.46875"/>
     <use xlink:href="#TimesNewRomanPSMT-63" x="199.853516"/>
     <use xlink:href="#TimesNewRomanPSMT-74" x="244.238281"/>
     <use xlink:href="#TimesNewRomanPSMT-76" x="272.021484"/>
     <use xlink:href="#TimesNewRomanPSMT-61" x="322.021484"/>
     <use xlink:href="#TimesNewRomanPSMT-6c" x="366.40625"/>
     <use xlink:href="#TimesNewRomanPSMT-75" x="394.189453"/>
     <use xlink:href="#TimesNewRomanPSMT-65" x="444.189453"/>
     <use xlink:href="#TimesNewRomanPSMT-3a" x="488.574219"/>
     <use xlink:href="#TimesNewRomanPSMT-31" x="516.357422"/>
     <use xlink:href="#TimesNewRomanPSMT-31" x="562.607422"/>
    </g>
    <!--  -->
    <g transform="translate(353.249193 182.308843) scale(0.1 -0.1)"/>
   </g>
   <g id="text_42">
    <!-- 0.0% -->
    <g transform="translate(289.611989 177.00819) scale(0.1 -0.1)">
     <use xlink:href="#TimesNewRomanPSMT-30"/>
     <use xlink:href="#TimesNewRomanPSMT-2e" x="50"/>
     <use xlink:href="#TimesNewRomanPSMT-30" x="75"/>
     <use xlink:href="#TimesNewRomanPSMT-25" x="125"/>
    </g>
   </g>
   <g id="text_43">
    <!-- sitofp:1 -->
    <g transform="translate(353.249279 171.705542) scale(0.1 -0.1)">
     <use xlink:href="#TimesNewRomanPSMT-73"/>
     <use xlink:href="#TimesNewRomanPSMT-69" x="38.916016"/>
     <use xlink:href="#TimesNewRomanPSMT-74" x="66.699219"/>
     <use xlink:href="#TimesNewRomanPSMT-6f" x="94.482422"/>
     <use xlink:href="#TimesNewRomanPSMT-66" x="144.482422"/>
     <use xlink:href="#TimesNewRomanPSMT-70" x="177.783203"/>
     <use xlink:href="#TimesNewRomanPSMT-3a" x="227.783203"/>
     <use xlink:href="#TimesNewRomanPSMT-31" x="255.566406"/>
    </g>
    <!--  -->
    <g transform="translate(353.249279 182.177105) scale(0.1 -0.1)"/>
   </g>
   <g id="text_44">
    <!-- 0.0% -->
    <g transform="translate(289.612036 176.936333) scale(0.1 -0.1)">
     <use xlink:href="#TimesNewRomanPSMT-30"/>
     <use xlink:href="#TimesNewRomanPSMT-2e" x="50"/>
     <use xlink:href="#TimesNewRomanPSMT-30" x="75"/>
     <use xlink:href="#TimesNewRomanPSMT-25" x="125"/>
    </g>
   </g>
  </g>
  <g id="text_45">
   <!-- YOLO OpNum Distribution -->
   <g transform="translate(162.402188 15.2445) scale(0.12 -0.12)">
    <defs>
     <path id="TimesNewRomanPSMT-59" d="M 3050 4238 
L 4528 4238 
L 4528 4122 
L 4447 4122 
Q 4366 4122 4209 4050 
Q 4053 3978 3925 3843 
Q 3797 3709 3609 3406 
L 2588 1797 
L 2588 734 
Q 2588 344 2675 247 
Q 2794 116 3050 116 
L 3188 116 
L 3188 0 
L 1388 0 
L 1388 116 
L 1538 116 
Q 1806 116 1919 278 
Q 1988 378 1988 734 
L 1988 1738 
L 825 3513 
Q 619 3825 545 3903 
Q 472 3981 241 4091 
Q 178 4122 59 4122 
L 59 4238 
L 1872 4238 
L 1872 4122 
L 1778 4122 
Q 1631 4122 1507 4053 
Q 1384 3984 1384 3847 
Q 1384 3734 1575 3441 
L 2459 2075 
L 3291 3381 
Q 3478 3675 3478 3819 
Q 3478 3906 3433 3975 
Q 3388 4044 3303 4083 
Q 3219 4122 3050 4122 
L 3050 4238 
z
" transform="scale(0.015625)"/>
     <path id="TimesNewRomanPSMT-4f" d="M 2341 4334 
Q 3166 4334 3770 3707 
Q 4375 3081 4375 2144 
Q 4375 1178 3765 540 
Q 3156 -97 2291 -97 
Q 1416 -97 820 525 
Q 225 1147 225 2134 
Q 225 3144 913 3781 
Q 1509 4334 2341 4334 
z
M 2281 4106 
Q 1713 4106 1369 3684 
Q 941 3159 941 2147 
Q 941 1109 1384 550 
Q 1725 125 2284 125 
Q 2881 125 3270 590 
Q 3659 1056 3659 2059 
Q 3659 3147 3231 3681 
Q 2888 4106 2281 4106 
z
" transform="scale(0.015625)"/>
     <path id="TimesNewRomanPSMT-4c" d="M 3669 1172 
L 3772 1150 
L 3409 0 
L 128 0 
L 128 116 
L 288 116 
Q 556 116 672 291 
Q 738 391 738 753 
L 738 3488 
Q 738 3884 650 3984 
Q 528 4122 288 4122 
L 128 4122 
L 128 4238 
L 2047 4238 
L 2047 4122 
Q 1709 4125 1573 4059 
Q 1438 3994 1388 3894 
Q 1338 3794 1338 3416 
L 1338 753 
Q 1338 494 1388 397 
Q 1425 331 1503 300 
Q 1581 269 1991 269 
L 2300 269 
Q 2788 269 2984 341 
Q 3181 413 3343 595 
Q 3506 778 3669 1172 
z
" transform="scale(0.015625)"/>
     <path id="TimesNewRomanPSMT-20" transform="scale(0.015625)"/>
     <path id="TimesNewRomanPSMT-4e" d="M -84 4238 
L 1066 4238 
L 3656 1059 
L 3656 3503 
Q 3656 3894 3569 3991 
Q 3453 4122 3203 4122 
L 3056 4122 
L 3056 4238 
L 4531 4238 
L 4531 4122 
L 4381 4122 
Q 4113 4122 4000 3959 
Q 3931 3859 3931 3503 
L 3931 -69 
L 3819 -69 
L 1025 3344 
L 1025 734 
Q 1025 344 1109 247 
Q 1228 116 1475 116 
L 1625 116 
L 1625 0 
L 150 0 
L 150 116 
L 297 116 
Q 569 116 681 278 
Q 750 378 750 734 
L 750 3681 
Q 566 3897 470 3965 
Q 375 4034 191 4094 
Q 100 4122 -84 4122 
L -84 4238 
z
" transform="scale(0.015625)"/>
     <path id="TimesNewRomanPSMT-44" d="M 109 0 
L 109 116 
L 269 116 
Q 538 116 650 288 
Q 719 391 719 750 
L 719 3488 
Q 719 3884 631 3984 
Q 509 4122 269 4122 
L 109 4122 
L 109 4238 
L 1834 4238 
Q 2784 4238 3279 4022 
Q 3775 3806 4076 3303 
Q 4378 2800 4378 2141 
Q 4378 1256 3841 663 
Q 3238 0 2003 0 
L 109 0 
z
M 1319 306 
Q 1716 219 1984 219 
Q 2709 219 3187 728 
Q 3666 1238 3666 2109 
Q 3666 2988 3187 3494 
Q 2709 4000 1959 4000 
Q 1678 4000 1319 3909 
L 1319 306 
z
" transform="scale(0.015625)"/>
    </defs>
    <use xlink:href="#TimesNewRomanPSMT-59"/>
    <use xlink:href="#TimesNewRomanPSMT-4f" x="72.216797"/>
    <use xlink:href="#TimesNewRomanPSMT-4c" x="144.433594"/>
    <use xlink:href="#TimesNewRomanPSMT-4f" x="205.517578"/>
    <use xlink:href="#TimesNewRomanPSMT-20" x="277.734375"/>
    <use xlink:href="#TimesNewRomanPSMT-4f" x="302.734375"/>
    <use xlink:href="#TimesNewRomanPSMT-70" x="374.951172"/>
    <use xlink:href="#TimesNewRomanPSMT-4e" x="424.951172"/>
    <use xlink:href="#TimesNewRomanPSMT-75" x="497.167969"/>
    <use xlink:href="#TimesNewRomanPSMT-6d" x="547.167969"/>
    <use xlink:href="#TimesNewRomanPSMT-20" x="624.951172"/>
    <use xlink:href="#TimesNewRomanPSMT-44" x="649.951172"/>
    <use xlink:href="#TimesNewRomanPSMT-69" x="722.167969"/>
    <use xlink:href="#TimesNewRomanPSMT-73" x="749.951172"/>
    <use xlink:href="#TimesNewRomanPSMT-74" x="788.867188"/>
    <use xlink:href="#TimesNewRomanPSMT-72" x="816.650391"/>
    <use xlink:href="#TimesNewRomanPSMT-69" x="849.951172"/>
    <use xlink:href="#TimesNewRomanPSMT-62" x="877.734375"/>
    <use xlink:href="#TimesNewRomanPSMT-75" x="927.734375"/>
    <use xlink:href="#TimesNewRomanPSMT-74" x="977.734375"/>
    <use xlink:href="#TimesNewRomanPSMT-69" x="1005.517578"/>
    <use xlink:href="#TimesNewRomanPSMT-6f" x="1033.300781"/>
    <use xlink:href="#TimesNewRomanPSMT-6e" x="1083.300781"/>
   </g>
  </g>
 </g>
</svg>
